<svg width="32" height="35" viewBox="0 0 32 35" fill="none" xmlns="http://www.w3.org/2000/svg">
<path d="M24.5489 17.0501C27.5339 12.8591 29.056 8.52754 26.9393 6.41082C24.8226 4.2941 20.491 5.81625 16.3 8.80121C12.1089 5.81625 7.77741 4.2941 5.66069 6.41082C3.54398 8.52754 5.06612 12.8591 8.05109 17.0501C5.06612 21.2412 3.54398 25.5727 5.66069 27.6894C6.34245 28.3712 7.25308 28.6751 8.31386 28.6751C10.5505 28.6751 13.4579 27.3225 16.306 25.299C19.1421 27.3225 22.0483 28.6751 24.2922 28.6751C25.353 28.6751 26.2648 28.37 26.9453 27.6894C29.056 25.5727 27.5339 21.2412 24.5489 17.0501ZM25.5697 7.78039C26.4949 8.70554 25.87 11.7038 23.3271 15.4432C22.5226 14.4473 21.6661 13.4946 20.7611 12.589C19.8551 11.6856 18.9024 10.8304 17.9069 10.0267C21.6463 7.48371 24.6446 6.85523 25.5697 7.78039ZM7.03027 7.78039C7.29667 7.51277 7.73624 7.37472 8.31628 7.37472C9.74761 7.37472 12.0326 8.21027 14.6919 10.0267C13.697 10.8306 12.7447 11.6859 11.8389 12.589C10.9352 13.4947 10.0799 14.4474 9.27655 15.4432C6.73359 11.7038 6.10511 8.70554 7.03027 7.78039ZM7.03027 26.3198C6.10511 25.3947 6.73359 22.3964 9.27655 18.657C10.081 19.6529 10.9376 20.6056 11.8425 21.5112C12.7476 22.4142 13.6991 23.2695 14.6931 24.0736C10.9537 26.6165 7.95542 27.245 7.03027 26.3198ZM16.3 18.5032C16.0126 18.5032 15.7316 18.418 15.4927 18.2583C15.2537 18.0987 15.0675 17.8717 14.9575 17.6062C14.8475 17.3407 14.8187 17.0485 14.8748 16.7666C14.9309 16.4847 15.0693 16.2258 15.2725 16.0226C15.4757 15.8194 15.7346 15.681 16.0165 15.6249C16.2984 15.5688 16.5906 15.5976 16.8561 15.7076C17.1216 15.8176 17.3485 16.0038 17.5082 16.2428C17.6679 16.4818 17.7531 16.7627 17.7531 17.0501C17.7531 17.4355 17.6 17.8051 17.3275 18.0776C17.055 18.3501 16.6854 18.5032 16.3 18.5032ZM25.5697 26.3211C24.6446 27.2474 21.6463 26.6214 17.9069 24.0784C18.9022 23.2733 19.8549 22.4168 20.7611 21.5124C21.6648 20.6064 22.5201 19.6532 23.3234 18.657C25.8664 22.3964 26.4949 25.3947 25.5697 26.3198V26.3211Z" fill="white"/>
</svg>
