<svg width="32" height="35" viewBox="0 0 32 35" fill="none" xmlns="http://www.w3.org/2000/svg">
<path d="M15.7 4.4563C13.5257 4.45582 11.3883 5.01828 9.4959 6.08892C7.60349 7.15956 6.0205 8.70191 4.90102 10.5658C3.78154 12.4298 3.1637 14.5518 3.10764 16.7253C3.05158 18.8989 3.55921 21.0499 4.58113 22.9691L3.20671 27.0924C3.09286 27.4337 3.07634 27.8001 3.159 28.1503C3.24165 28.5006 3.42022 28.8209 3.67468 29.0753C3.92914 29.3298 4.24944 29.5084 4.59969 29.591C4.94993 29.6737 5.31627 29.6571 5.65765 29.5433L9.78089 28.1689C11.4699 29.0672 13.3413 29.569 15.2532 29.6361C17.165 29.7031 19.067 29.3338 20.8148 28.5561C22.5626 27.7783 24.1102 26.6126 25.3402 25.1474C26.5703 23.6823 27.4503 21.9561 27.9136 20.1001C28.3769 18.244 28.4113 16.3068 28.0141 14.4354C27.617 12.5641 26.7987 10.8078 25.6214 9.29995C24.4442 7.79206 22.9389 6.57219 21.2198 5.73294C19.5007 4.89368 17.613 4.45708 15.7 4.4563ZM10.3718 18.5032C10.0844 18.5032 9.80348 18.4179 9.56452 18.2583C9.32555 18.0986 9.1393 17.8717 9.02932 17.6061C8.91933 17.3406 8.89056 17.0484 8.94662 16.7666C9.00269 16.4847 9.14109 16.2258 9.34431 16.0225C9.54754 15.8193 9.80646 15.6809 10.0883 15.6248C10.3702 15.5688 10.6624 15.5976 10.9279 15.7075C11.1934 15.8175 11.4204 16.0038 11.5801 16.2427C11.7397 16.4817 11.825 16.7626 11.825 17.05C11.825 17.4354 11.6719 17.805 11.3993 18.0776C11.1268 18.3501 10.7572 18.5032 10.3718 18.5032ZM15.7 18.5032C15.4126 18.5032 15.1316 18.4179 14.8926 18.2583C14.6537 18.0986 14.4674 17.8717 14.3574 17.6061C14.2475 17.3406 14.2187 17.0484 14.2747 16.7666C14.3308 16.4847 14.4692 16.2258 14.6724 16.0225C14.8757 15.8193 15.1346 15.6809 15.4165 15.6248C15.6983 15.5688 15.9905 15.5976 16.256 15.7075C16.5216 15.8175 16.7485 16.0038 16.9082 16.2427C17.0679 16.4817 17.1531 16.7626 17.1531 17.05C17.1531 17.4354 17 17.805 16.7275 18.0776C16.455 18.3501 16.0853 18.5032 15.7 18.5032ZM21.0281 18.5032C20.7407 18.5032 20.4597 18.4179 20.2208 18.2583C19.9818 18.0986 19.7956 17.8717 19.6856 17.6061C19.5756 17.3406 19.5468 17.0484 19.6029 16.7666C19.6589 16.4847 19.7973 16.2258 20.0006 16.0225C20.2038 15.8193 20.4627 15.6809 20.7446 15.6248C21.0265 15.5688 21.3186 15.5976 21.5842 15.7075C21.8497 15.8175 22.0766 16.0038 22.2363 16.2427C22.396 16.4817 22.4812 16.7626 22.4812 17.05C22.4812 17.4354 22.3281 17.805 22.0556 18.0776C21.7831 18.3501 21.4135 18.5032 21.0281 18.5032Z" fill="white"/>
</svg>
