<svg width="31" height="35" viewBox="0 0 31 35" fill="none" xmlns="http://www.w3.org/2000/svg">
<path d="M29.0625 8.3313V16.0813C29.0627 16.273 29.0059 16.4605 28.8995 16.6199C28.793 16.7794 28.6417 16.9036 28.4646 16.977C28.2875 17.0504 28.0926 17.0696 27.9045 17.0322C27.7165 16.9947 27.5438 16.9023 27.4084 16.7667L24.2188 13.5759L17.1541 20.6417C17.0642 20.7318 16.9573 20.8032 16.8397 20.852C16.7221 20.9007 16.5961 20.9258 16.4688 20.9258C16.3414 20.9258 16.2154 20.9007 16.0978 20.852C15.9802 20.8032 15.8733 20.7318 15.7834 20.6417L11.625 16.4821L3.59164 24.5167C3.40986 24.6985 3.16332 24.8006 2.90625 24.8006C2.64918 24.8006 2.40264 24.6985 2.22086 24.5167C2.03908 24.3349 1.93696 24.0884 1.93696 23.8313C1.93696 23.5742 2.03908 23.3277 2.22086 23.1459L10.9396 14.4272C11.0296 14.3371 11.1364 14.2656 11.254 14.2169C11.3716 14.1681 11.4977 14.143 11.625 14.143C11.7523 14.143 11.8784 14.1681 11.996 14.2169C12.1136 14.2656 12.2204 14.3371 12.3104 14.4272L16.4688 18.5867L22.8492 12.2063L19.6584 9.01669C19.5227 8.8812 19.4303 8.70852 19.3929 8.5205C19.3555 8.33248 19.3746 8.13758 19.448 7.96047C19.5214 7.78336 19.6457 7.63201 19.8051 7.52557C19.9646 7.41913 20.152 7.3624 20.3438 7.36255H28.0938C28.3507 7.36255 28.5971 7.46461 28.7788 7.64629C28.9604 7.82797 29.0625 8.07437 29.0625 8.3313Z" fill="white"/>
</svg>
