<svg width="32" height="35" viewBox="0 0 32 35" fill="none" xmlns="http://www.w3.org/2000/svg">
<path d="M29.4031 14.5326C29.3761 14.3962 29.32 14.2671 29.2388 14.1543C29.1575 14.0415 29.0529 13.9475 28.932 13.8787L25.3198 11.8201L25.3052 7.7489C25.3048 7.60869 25.2739 7.47024 25.2148 7.34313C25.1556 7.21601 25.0696 7.10326 24.9626 7.01265C23.6522 5.90427 22.1433 5.05488 20.516 4.50964C20.3878 4.46626 20.252 4.45021 20.1173 4.46252C19.9826 4.47482 19.8519 4.51521 19.7337 4.58108L16.09 6.61788L12.4427 4.57745C12.3244 4.51121 12.1936 4.47051 12.0586 4.458C11.9237 4.44548 11.7876 4.46142 11.6592 4.50479C10.0329 5.05354 8.52558 5.90622 7.21747 7.01749C7.11063 7.10797 7.02467 7.22053 6.96551 7.34742C6.90635 7.47432 6.87539 7.61252 6.87478 7.75253L6.85661 11.8273L3.24439 13.8859C3.12354 13.9547 3.01892 14.0487 2.93764 14.1616C2.85635 14.2744 2.80032 14.4034 2.77333 14.5398C2.44274 16.2011 2.44274 17.9112 2.77333 19.5725C2.80032 19.7089 2.85635 19.8379 2.93764 19.9508C3.01892 20.0636 3.12354 20.1576 3.24439 20.2264L6.85661 22.285L6.87115 26.3574C6.87158 26.4976 6.90245 26.636 6.96162 26.7631C7.02079 26.8903 7.10684 27.003 7.21384 27.0936C8.52416 28.202 10.0331 29.0514 11.6604 29.5966C11.7886 29.64 11.9244 29.6561 12.0591 29.6438C12.1938 29.6315 12.3245 29.5911 12.4427 29.5252L16.09 27.4823L19.7374 29.5228C19.8817 29.6032 20.0444 29.6449 20.2096 29.6439C20.3154 29.6438 20.4205 29.6266 20.5208 29.593C22.1468 29.0445 23.6539 28.1927 24.9626 27.0827C25.0694 26.9922 25.1554 26.8797 25.2145 26.7528C25.2737 26.6259 25.3046 26.4877 25.3052 26.3477L25.3234 22.2729L28.9356 20.2143C29.0565 20.1455 29.1611 20.0515 29.2424 19.9386C29.3237 19.8258 29.3797 19.6968 29.4067 19.5604C29.7354 17.9004 29.7342 16.192 29.4031 14.5326ZM16.09 21.8939C15.132 21.8939 14.1955 21.6098 13.399 21.0775C12.6024 20.5453 11.9816 19.7888 11.615 18.9037C11.2484 18.0187 11.1524 17.0447 11.3393 16.1051C11.5262 15.1655 11.9876 14.3025 12.665 13.6251C13.3424 12.9476 14.2054 12.4863 15.145 12.2994C16.0846 12.1125 17.0586 12.2085 17.9436 12.5751C18.8287 12.9417 19.5852 13.5625 20.1174 14.3591C20.6497 15.1556 20.9338 16.0921 20.9338 17.0501C20.9338 18.3348 20.4234 19.5668 19.5151 20.4752C18.6067 21.3835 17.3747 21.8939 16.09 21.8939Z" fill="white"/>
</svg>
