<svg xmlns="http://www.w3.org/2000/svg" viewBox="863 646 838 153" role="img" aria-label="VEZvision">
  <title>VEZvision</title>
  <g transform="matrix(3.867569,0,0,3.867745,597.605399,-5.196765)">
    <path d="M76.227,199.727L76.66,200.156L76.703,200.199C78.047,201.594 78.035,203.84 76.66,205.215C75.281,206.594 73.035,206.605 71.641,205.258L71.598,205.215L71.164,204.789L69.988,203.605C68.598,202.215 68.598,199.941 69.988,198.547C71.379,197.156 73.656,197.156 75.047,198.547L76.227,199.727ZM100.094,180.152L105.402,174.844C106.793,173.453 106.793,171.176 105.402,169.781C104.008,168.391 101.734,168.391 100.344,169.781L95.934,174.191L95.449,174.672L95.031,175.094L92.504,177.621C91.113,179.012 91.113,181.285 92.504,182.684L95.031,185.211L95.484,185.66L100.375,190.551C101.766,191.941 104.043,191.941 105.438,190.551C106.828,189.16 106.828,186.883 105.438,185.492L100.543,180.598L100.094,180.152ZM70.188,169.816L70.188,169.812C71.578,168.422 73.859,168.422 75.25,169.812L105.367,199.934C106.766,201.324 106.766,203.605 105.367,204.996C103.98,206.387 101.703,206.387 100.309,204.996L70.188,174.871C68.801,173.48 68.801,171.207 70.188,169.816ZM70.145,184.234C71.535,182.844 73.812,182.844 75.207,184.234L90.949,199.977C92.34,201.367 92.34,203.648 90.949,205.039C89.555,206.43 87.277,206.43 85.891,205.039L80.996,200.148L70.145,189.297C68.754,187.906 68.754,185.625 70.145,184.234Z" fill="#04070d"/>
  </g>
  <g transform="translate(356.643848,19.325)">
    <path d="M774.050 754L758.750 754L717.500 645.550L733.250 645.550L759.650 714.850Q763.400 724.450 766.400 735.250Q769.550 724.750 773.300 714.700L799.550 645.550L814.850 645.550L774.050 754M895.100 740.350L895.100 754L828.950 754L828.950 645.550L895.100 645.550L895.100 659.050L843.650 659.050L843.650 692.950L890 692.950L890 706L843.650 706L843.650 740.350L895.100 740.350M985.850 740.350L985.850 754L909.200 754L909.200 740.350L967.400 659.050L910.100 659.050L910.100 645.550L985.700 645.550L985.700 658.750L927.050 740.350Z" fill="#04070d"/>
    <path d="M1029.650 754L1022.600 754L992.750 682L1000.100 682L1021.550 734.350Q1024.550 741.850 1026.200 746.950Q1027.400 742.750 1030.850 734.350L1052.300 682L1059.500 682L1029.650 754M1080.275 658.075Q1078.400 659.950 1075.850 659.950Q1073.300 659.950 1071.425 658.150Q1069.550 656.350 1069.550 653.800Q1069.550 651.250 1071.425 649.300Q1073.300 647.350 1075.850 647.350Q1078.400 647.350 1080.275 649.300Q1082.150 651.250 1082.150 653.800Q1082.150 656.200 1080.275 658.075M1079.300 754L1072.400 754L1072.400 682L1079.300 682L1079.300 754M1095.650 734.500L1102.400 734.500Q1102.400 741.400 1107.200 745.450Q1112 749.500 1120.400 749.500Q1129.550 749.500 1134.800 745.675Q1140.050 741.850 1140.050 735.250Q1140.050 730 1137.125 727Q1134.200 724 1127.300 722.200L1115.150 719.050Q1097 714.400 1097 700.150Q1097 691.150 1103.825 685.675Q1110.650 680.200 1121.750 680.200Q1132.850 680.200 1139.450 685.825Q1146.050 691.450 1146.350 701.200L1139.600 701.200Q1139.300 694.300 1134.575 690.400Q1129.850 686.500 1121.750 686.500Q1113.050 686.500 1108.475 690.025Q1103.900 693.550 1103.900 700.150Q1103.900 709.600 1116.800 712.900L1128.800 716.050Q1138.250 718.600 1142.600 723.175Q1146.950 727.750 1146.950 735.250Q1146.950 744.550 1139.750 750.175Q1132.550 755.800 1120.700 755.800Q1109.150 755.800 1102.400 750.025Q1095.650 744.250 1095.650 734.500M1173.275 658.075Q1171.400 659.950 1168.850 659.950Q1166.300 659.950 1164.425 658.150Q1162.550 656.350 1162.550 653.800Q1162.550 651.250 1164.425 649.300Q1166.300 647.350 1168.850 647.350Q1171.400 647.350 1173.275 649.300Q1175.150 651.250 1175.150 653.800Q1175.150 656.200 1173.275 658.075M1172.300 754L1165.400 754L1165.400 682L1172.300 682L1172.300 754M1199.825 745.075Q1189.700 734.350 1189.700 718Q1189.700 701.650 1199.825 690.925Q1209.950 680.200 1225.400 680.200Q1240.850 680.200 1250.975 690.925Q1261.100 701.650 1261.100 718Q1261.100 734.350 1250.975 745.075Q1240.850 755.800 1225.400 755.800Q1209.950 755.800 1199.825 745.075M1204.775 695.350Q1196.750 704.200 1196.750 718Q1196.750 731.800 1204.775 740.650Q1212.800 749.500 1225.400 749.500Q1238 749.500 1246.025 740.650Q1254.050 731.800 1254.050 718Q1254.050 704.200 1246.025 695.350Q1238 686.500 1225.400 686.500Q1212.800 686.500 1204.775 695.350M1285.400 716.800L1285.400 754L1278.500 754L1278.500 682L1284.050 682L1285.550 695.950Q1289.150 688.450 1295.975 684.325Q1302.800 680.200 1311.050 680.200Q1339.100 680.200 1339.100 710.200L1339.100 754L1332.200 754L1332.200 711.550Q1332.200 697.900 1326.725 692.200Q1321.250 686.500 1310.900 686.500Q1298.900 686.500 1292.150 694.750Q1285.400 703 1285.400 716.800Z" fill="#04070d"/>
  </g>
</svg>
