<svg width="17" height="17" viewBox="0 0 17 17" fill="none" xmlns="http://www.w3.org/2000/svg">
<path d="M8.93994 5.7002C8.3466 5.7002 7.76658 5.87614 7.27323 6.20579C6.77988 6.53543 6.39537 7.00397 6.1683 7.55215C5.94124 8.10032 5.88183 8.70352 5.99759 9.28547C6.11334 9.86741 6.39906 10.402 6.81862 10.8215C7.23818 11.2411 7.77273 11.5268 8.35467 11.6426C8.93661 11.7583 9.53981 11.6989 10.088 11.4718C10.6362 11.2448 11.1047 10.8603 11.4344 10.3669C11.764 9.87356 11.9399 9.29354 11.9399 8.7002C11.9391 7.9048 11.6228 7.14222 11.0603 6.57979C10.4979 6.01736 9.73534 5.70102 8.93994 5.7002ZM8.93994 10.7002C8.54438 10.7002 8.1577 10.5829 7.8288 10.3631C7.4999 10.1434 7.24356 9.83101 7.09218 9.46556C6.94081 9.10011 6.9012 8.69798 6.97837 8.31001C7.05554 7.92205 7.24602 7.56569 7.52573 7.28598C7.80543 7.00628 8.1618 6.81579 8.54976 6.73862C8.93772 6.66145 9.33986 6.70106 9.70531 6.85244C10.0708 7.00381 10.3831 7.26016 10.6029 7.58906C10.8226 7.91795 10.9399 8.30463 10.9399 8.7002C10.9399 9.23063 10.7292 9.73934 10.3542 10.1144C9.97908 10.4895 9.47037 10.7002 8.93994 10.7002ZM11.9399 2.2002H5.93994C5.01199 2.20119 4.12233 2.57026 3.46616 3.22642C2.81 3.88258 2.44093 4.77224 2.43994 5.7002V11.7002C2.44093 12.6281 2.81 13.5178 3.46616 14.174C4.12233 14.8301 5.01199 15.1992 5.93994 15.2002H11.9399C12.8679 15.1992 13.7576 14.8301 14.4137 14.174C15.0699 13.5178 15.4389 12.6281 15.4399 11.7002V5.7002C15.4389 4.77224 15.0699 3.88258 14.4137 3.22642C13.7576 2.57026 12.8679 2.20119 11.9399 2.2002ZM14.4399 11.7002C14.4399 12.3632 14.1765 12.9991 13.7077 13.468C13.2389 13.9368 12.603 14.2002 11.9399 14.2002H5.93994C5.2769 14.2002 4.64102 13.9368 4.17217 13.468C3.70333 12.9991 3.43994 12.3632 3.43994 11.7002V5.7002C3.43994 5.03715 3.70333 4.40127 4.17217 3.93243C4.64102 3.46359 5.2769 3.2002 5.93994 3.2002H11.9399C12.603 3.2002 13.2389 3.46359 13.7077 3.93243C14.1765 4.40127 14.4399 5.03715 14.4399 5.7002V11.7002ZM12.9399 5.4502C12.9399 5.59853 12.896 5.74354 12.8135 5.86687C12.7311 5.99021 12.614 6.08634 12.477 6.14311C12.3399 6.19987 12.1891 6.21472 12.0436 6.18578C11.8981 6.15685 11.7645 6.08541 11.6596 5.98053C11.5547 5.87564 11.4833 5.742 11.4544 5.59651C11.4254 5.45103 11.4403 5.30023 11.497 5.16318C11.5538 5.02614 11.6499 4.909 11.7733 4.82659C11.8966 4.74418 12.0416 4.7002 12.1899 4.7002C12.3889 4.7002 12.5796 4.77921 12.7203 4.91987C12.8609 5.06052 12.9399 5.25128 12.9399 5.4502Z" fill="black"/>
</svg>
