<svg width="51" height="51" viewBox="0 0 51 51" fill="none" xmlns="http://www.w3.org/2000/svg">
<mask id="mask0_349_457" style="mask-type:luminance" maskUnits="userSpaceOnUse" x="0" y="0" width="51" height="51">
<path d="M0 0H51V51H0V0Z" fill="white"/>
</mask>
<g mask="url(#mask0_349_457)">
<path fill-rule="evenodd" clip-rule="evenodd" d="M10.1771 41.828L10.7552 42.4009L10.8125 42.4582C12.6042 44.3175 12.5885 47.3123 10.7552 49.1457C8.91667 50.9842 5.92188 50.9998 4.0625 49.203L4.00521 49.1457L3.42708 48.578L1.85938 46.9998C0.00520831 45.1457 0.00520831 42.1144 1.85938 40.255C3.71354 38.4009 6.75 38.4009 8.60417 40.255L10.1771 41.828ZM42 15.729L43.1979 14.5311L49.0781 8.64567C50.9323 6.79671 50.9323 3.76025 49.0781 1.90088C47.2188 0.0467122 44.1875 0.0467122 42.3333 1.90088L36.4531 7.78109L35.8073 8.42171L35.25 8.98421L31.8802 12.354C30.026 14.2082 30.026 17.2394 31.8802 19.104L35.25 22.4738L35.8542 23.0728L42.375 29.5936C44.2292 31.4478 47.2656 31.4478 49.125 29.5936C50.9792 27.7394 50.9792 24.703 49.125 22.8488L42.599 16.3228L42 15.729ZM2.125 1.94775V1.94255C3.97917 0.0883789 7.02083 0.0883789 8.875 1.94255L49.0312 42.104C50.8958 43.9582 50.8958 46.9998 49.0312 48.854C47.1823 50.7082 44.1458 50.7082 42.2865 48.854L2.125 8.68734C0.276041 6.83317 0.276041 3.80192 2.125 1.94775ZM2.06771 21.1717C3.92188 19.3175 6.95833 19.3175 8.81771 21.1717L29.8073 42.1613C31.6615 44.0155 31.6615 47.0571 29.8073 48.9113C27.9479 50.7655 24.9115 50.7655 23.0625 48.9113L16.5365 42.3905L2.06771 27.9217C0.213542 26.0675 0.213542 23.0259 2.06771 21.1717Z" fill="black"/>
</g>
</svg>
