<svg width="21" height="21" viewBox="0 0 21 21" fill="none" xmlns="http://www.w3.org/2000/svg">
<path d="M16.525 5.6001V13.7251C16.5251 13.8488 16.4885 13.9697 16.4198 14.0726C16.3512 14.1755 16.2535 14.2556 16.1392 14.303C16.025 14.3503 15.8992 14.3627 15.7779 14.3386C15.6566 14.3144 15.5452 14.2548 15.4578 14.1673L11.8375 10.5462L6.34219 16.0423C6.22492 16.1596 6.06586 16.2254 5.90001 16.2254C5.73415 16.2254 5.57509 16.1596 5.45782 16.0423C5.34054 15.925 5.27466 15.766 5.27466 15.6001C5.27466 15.4342 5.34054 15.2752 5.45782 15.1579L10.9539 9.6626L7.33282 6.04229C7.24531 5.95488 7.18571 5.84347 7.16155 5.72216C7.13739 5.60086 7.14977 5.47512 7.19712 5.36085C7.24446 5.24659 7.32465 5.14894 7.42752 5.08027C7.53039 5.0116 7.65132 4.975 7.77501 4.9751H15.9C16.0658 4.9751 16.2247 5.04095 16.3419 5.15816C16.4592 5.27537 16.525 5.43434 16.525 5.6001Z" fill="white"/>
</svg>
