<svg width="15" height="16" viewBox="0 0 15 16" fill="none" xmlns="http://www.w3.org/2000/svg">
<path d="M13.6225 5.06108L6.12247 12.5611C6.05714 12.6266 5.97952 12.6786 5.89406 12.7141C5.80859 12.7496 5.71696 12.7679 5.62442 12.7679C5.53188 12.7679 5.44025 12.7496 5.35478 12.7141C5.26932 12.6786 5.19169 12.6266 5.12637 12.5611L1.84512 9.27983C1.77972 9.21443 1.72784 9.13678 1.69244 9.05133C1.65704 8.96587 1.63882 8.87428 1.63882 8.78179C1.63882 8.68929 1.65704 8.5977 1.69244 8.51225C1.72784 8.42679 1.77972 8.34914 1.84512 8.28374C1.91053 8.21834 1.98817 8.16645 2.07363 8.13106C2.15908 8.09566 2.25067 8.07744 2.34317 8.07744C2.43567 8.07744 2.52726 8.09566 2.61271 8.13106C2.69817 8.16645 2.77581 8.21834 2.84122 8.28374L5.62501 11.0675L12.6275 4.06616C12.7596 3.93407 12.9388 3.85986 13.1256 3.85986C13.3124 3.85986 13.4915 3.93407 13.6236 4.06616C13.7557 4.19825 13.8299 4.3774 13.8299 4.56421C13.8299 4.75101 13.7557 4.93016 13.6236 5.06225L13.6225 5.06108Z" fill="black"/>
</svg>
