<svg width="15" height="16" viewBox="0 0 15 16" fill="none" xmlns="http://www.w3.org/2000/svg">
<path d="M13.6225 5.45122L6.12247 12.9512C6.05714 13.0168 5.97952 13.0688 5.89406 13.1043C5.80859 13.1398 5.71696 13.158 5.62442 13.158C5.53188 13.158 5.44025 13.1398 5.35478 13.1043C5.26932 13.0688 5.19169 13.0168 5.12637 12.9512L1.84512 9.66997C1.77972 9.60457 1.72784 9.52692 1.69244 9.44146C1.65704 9.35601 1.63882 9.26442 1.63882 9.17192C1.63882 9.07943 1.65704 8.98784 1.69244 8.90238C1.72784 8.81693 1.77972 8.73928 1.84512 8.67388C1.91053 8.60847 1.98817 8.55659 2.07363 8.52119C2.15908 8.4858 2.25067 8.46758 2.34317 8.46758C2.43567 8.46758 2.52726 8.4858 2.61271 8.52119C2.69817 8.55659 2.77581 8.60847 2.84122 8.67388L5.62501 11.4577L12.6275 4.4563C12.7596 4.32421 12.9388 4.25 13.1256 4.25C13.3124 4.25 13.4915 4.32421 13.6236 4.4563C13.7557 4.58839 13.8299 4.76754 13.8299 4.95434C13.8299 5.14115 13.7557 5.3203 13.6236 5.45239L13.6225 5.45122Z" fill="black"/>
</svg>
