<svg width="15" height="16" viewBox="0 0 15 16" fill="none" xmlns="http://www.w3.org/2000/svg">
<path d="M13.6225 5.62114L6.12247 13.1211C6.05714 13.1867 5.97952 13.2387 5.89406 13.2742C5.80859 13.3097 5.71696 13.3279 5.62442 13.3279C5.53188 13.3279 5.44025 13.3097 5.35478 13.2742C5.26932 13.2387 5.19169 13.1867 5.12637 13.1211L1.84512 9.83989C1.77972 9.77449 1.72784 9.69684 1.69244 9.61139C1.65704 9.52593 1.63882 9.43434 1.63882 9.34185C1.63882 9.24935 1.65704 9.15776 1.69244 9.0723C1.72784 8.98685 1.77972 8.9092 1.84512 8.8438C1.91053 8.77839 1.98817 8.72651 2.07363 8.69112C2.15908 8.65572 2.25067 8.6375 2.34317 8.6375C2.43567 8.6375 2.52726 8.65572 2.61271 8.69112C2.69817 8.72651 2.77581 8.77839 2.84122 8.8438L5.62501 11.6276L12.6275 4.62622C12.7596 4.49413 12.9388 4.41992 13.1256 4.41992C13.3124 4.41992 13.4915 4.49413 13.6236 4.62622C13.7557 4.75831 13.8299 4.93746 13.8299 5.12427C13.8299 5.31107 13.7557 5.49022 13.6236 5.62231L13.6225 5.62114Z" fill="black"/>
</svg>
