<svg width="15" height="16" viewBox="0 0 15 16" fill="none" xmlns="http://www.w3.org/2000/svg">
<path d="M13.6225 5.67143L6.12247 13.1714C6.05714 13.237 5.97952 13.289 5.89406 13.3245C5.80859 13.36 5.71696 13.3782 5.62442 13.3782C5.53188 13.3782 5.44025 13.36 5.35478 13.3245C5.26932 13.289 5.19169 13.237 5.12637 13.1714L1.84512 9.89018C1.77972 9.82478 1.72784 9.74713 1.69244 9.66168C1.65704 9.57622 1.63882 9.48463 1.63882 9.39214C1.63882 9.29964 1.65704 9.20805 1.69244 9.1226C1.72784 9.03714 1.77972 8.9595 1.84512 8.89409C1.91053 8.82869 1.98817 8.7768 2.07363 8.74141C2.15908 8.70601 2.25067 8.68779 2.34317 8.68779C2.43567 8.68779 2.52726 8.70601 2.61271 8.74141C2.69817 8.7768 2.77581 8.82869 2.84122 8.89409L5.62501 11.6779L12.6275 4.67651C12.7596 4.54442 12.9388 4.47021 13.1256 4.47021C13.3124 4.47021 13.4915 4.54442 13.6236 4.67651C13.7557 4.8086 13.8299 4.98776 13.8299 5.17456C13.8299 5.36136 13.7557 5.54052 13.6236 5.67261L13.6225 5.67143Z" fill="black"/>
</svg>
