<svg width="15" height="16" viewBox="0 0 15 16" fill="none" xmlns="http://www.w3.org/2000/svg">
<path d="M13.6225 4.84136L6.12247 12.3414C6.05714 12.4069 5.97952 12.4589 5.89406 12.4944C5.80859 12.5299 5.71696 12.5482 5.62442 12.5482C5.53188 12.5482 5.44025 12.5299 5.35478 12.4944C5.26932 12.4589 5.19169 12.4069 5.12637 12.3414L1.84512 9.06011C1.77972 8.9947 1.72784 8.91706 1.69244 8.8316C1.65704 8.74615 1.63882 8.65456 1.63882 8.56206C1.63882 8.46956 1.65704 8.37797 1.69244 8.29252C1.72784 8.20706 1.77972 8.12942 1.84512 8.06401C1.91053 7.99861 1.98817 7.94673 2.07363 7.91133C2.15908 7.87593 2.25067 7.85771 2.34317 7.85771C2.43567 7.85771 2.52726 7.87593 2.61271 7.91133C2.69817 7.94673 2.77581 7.99861 2.84122 8.06401L5.62501 10.8478L12.6275 3.84643C12.7596 3.71434 12.9388 3.64014 13.1256 3.64014C13.3124 3.64014 13.4915 3.71434 13.6236 3.84643C13.7557 3.97852 13.8299 4.15768 13.8299 4.34448C13.8299 4.53129 13.7557 4.71044 13.6236 4.84253L13.6225 4.84136Z" fill="black"/>
</svg>
