<svg width="15" height="16" viewBox="0 0 15 16" fill="none" xmlns="http://www.w3.org/2000/svg">
<path d="M13.6225 5.2813L6.12247 12.7813C6.05714 12.8468 5.97952 12.8989 5.89406 12.9343C5.80859 12.9698 5.71696 12.9881 5.62442 12.9881C5.53188 12.9881 5.44025 12.9698 5.35478 12.9343C5.26932 12.8989 5.19169 12.8468 5.12637 12.7813L1.84512 9.50005C1.77972 9.43464 1.72784 9.357 1.69244 9.27154C1.65704 9.18609 1.63882 9.0945 1.63882 9.002C1.63882 8.90951 1.65704 8.81791 1.69244 8.73246C1.72784 8.64701 1.77972 8.56936 1.84512 8.50395C1.91053 8.43855 1.98817 8.38667 2.07363 8.35127C2.15908 8.31588 2.25067 8.29766 2.34317 8.29766C2.43567 8.29766 2.52726 8.31588 2.61271 8.35127C2.69817 8.38667 2.77581 8.43855 2.84122 8.50395L5.62501 11.2877L12.6275 4.28638C12.7596 4.15429 12.9388 4.08008 13.1256 4.08008C13.3124 4.08008 13.4915 4.15429 13.6236 4.28638C13.7557 4.41847 13.8299 4.59762 13.8299 4.78442C13.8299 4.97123 13.7557 5.15038 13.6236 5.28247L13.6225 5.2813Z" fill="black"/>
</svg>
