<svg width="15" height="16" viewBox="0 0 15 16" fill="none" xmlns="http://www.w3.org/2000/svg">
<path d="M13.6225 5.23149L6.12247 12.7315C6.05714 12.797 5.97952 12.8491 5.89406 12.8845C5.80859 12.92 5.71696 12.9383 5.62442 12.9383C5.53188 12.9383 5.44025 12.92 5.35478 12.8845C5.26932 12.8491 5.19169 12.797 5.12637 12.7315L1.84512 9.45024C1.77972 9.38484 1.72784 9.30719 1.69244 9.22174C1.65704 9.13628 1.63882 9.04469 1.63882 8.9522C1.63882 8.8597 1.65704 8.76811 1.69244 8.68266C1.72784 8.5972 1.77972 8.51955 1.84512 8.45415C1.91053 8.38875 1.98817 8.33686 2.07363 8.30147C2.15908 8.26607 2.25067 8.24785 2.34317 8.24785C2.43567 8.24785 2.52726 8.26607 2.61271 8.30147C2.69817 8.33686 2.77581 8.38875 2.84122 8.45415L5.62501 11.2379L12.6275 4.23657C12.7596 4.10448 12.9388 4.03027 13.1256 4.03027C13.3124 4.03027 13.4915 4.10448 13.6236 4.23657C13.7557 4.36866 13.8299 4.54781 13.8299 4.73462C13.8299 4.92142 13.7557 5.10057 13.6236 5.23267L13.6225 5.23149Z" fill="black"/>
</svg>
