<svg width="15" height="16" viewBox="0 0 15 16" fill="none" xmlns="http://www.w3.org/2000/svg">
<path d="M13.6224 5.06108L6.12244 12.5611C6.05711 12.6266 5.97949 12.6786 5.89403 12.7141C5.80856 12.7496 5.71693 12.7679 5.62439 12.7679C5.53185 12.7679 5.44022 12.7496 5.35475 12.7141C5.26928 12.6786 5.19166 12.6266 5.12634 12.5611L1.84509 9.27983C1.77969 9.21443 1.72781 9.13678 1.69241 9.05133C1.65701 8.96587 1.63879 8.87428 1.63879 8.78179C1.63879 8.68929 1.65701 8.5977 1.69241 8.51225C1.72781 8.42679 1.77969 8.34914 1.84509 8.28374C1.9105 8.21834 1.98814 8.16645 2.0736 8.13106C2.15905 8.09566 2.25064 8.07744 2.34314 8.07744C2.43563 8.07744 2.52722 8.09566 2.61268 8.13106C2.69813 8.16645 2.77578 8.21834 2.84119 8.28374L5.62497 11.0675L12.6275 4.06616C12.7596 3.93407 12.9388 3.85986 13.1256 3.85986C13.3124 3.85986 13.4915 3.93407 13.6236 4.06616C13.7557 4.19825 13.8299 4.3774 13.8299 4.56421C13.8299 4.75101 13.7557 4.93016 13.6236 5.06225L13.6224 5.06108Z" fill="black"/>
</svg>
