<svg width="15" height="16" viewBox="0 0 15 16" fill="none" xmlns="http://www.w3.org/2000/svg">
<path d="M13.6224 5.45122L6.12244 12.9512C6.05711 13.0168 5.97949 13.0688 5.89403 13.1043C5.80856 13.1398 5.71693 13.158 5.62439 13.158C5.53185 13.158 5.44022 13.1398 5.35475 13.1043C5.26928 13.0688 5.19166 13.0168 5.12634 12.9512L1.84509 9.66997C1.77969 9.60457 1.72781 9.52692 1.69241 9.44146C1.65701 9.35601 1.63879 9.26442 1.63879 9.17192C1.63879 9.07943 1.65701 8.98784 1.69241 8.90238C1.72781 8.81693 1.77969 8.73928 1.84509 8.67388C1.9105 8.60847 1.98814 8.55659 2.0736 8.52119C2.15905 8.4858 2.25064 8.46758 2.34314 8.46758C2.43563 8.46758 2.52722 8.4858 2.61268 8.52119C2.69813 8.55659 2.77578 8.60847 2.84119 8.67388L5.62497 11.4577L12.6275 4.4563C12.7596 4.32421 12.9388 4.25 13.1256 4.25C13.3124 4.25 13.4915 4.32421 13.6236 4.4563C13.7557 4.58839 13.8299 4.76754 13.8299 4.95434C13.8299 5.14115 13.7557 5.3203 13.6236 5.45239L13.6224 5.45122Z" fill="black"/>
</svg>
