<svg width="15" height="16" viewBox="0 0 15 16" fill="none" xmlns="http://www.w3.org/2000/svg">
<path d="M13.6224 4.84136L6.12244 12.3414C6.05711 12.4069 5.97949 12.4589 5.89403 12.4944C5.80856 12.5299 5.71693 12.5482 5.62439 12.5482C5.53185 12.5482 5.44022 12.5299 5.35475 12.4944C5.26928 12.4589 5.19166 12.4069 5.12634 12.3414L1.84509 9.06011C1.77969 8.9947 1.72781 8.91706 1.69241 8.8316C1.65701 8.74615 1.63879 8.65456 1.63879 8.56206C1.63879 8.46956 1.65701 8.37797 1.69241 8.29252C1.72781 8.20706 1.77969 8.12942 1.84509 8.06401C1.9105 7.99861 1.98814 7.94673 2.0736 7.91133C2.15905 7.87593 2.25064 7.85771 2.34314 7.85771C2.43563 7.85771 2.52722 7.87593 2.61268 7.91133C2.69813 7.94673 2.77578 7.99861 2.84119 8.06401L5.62497 10.8478L12.6275 3.84643C12.7596 3.71434 12.9388 3.64014 13.1256 3.64014C13.3124 3.64014 13.4915 3.71434 13.6236 3.84643C13.7557 3.97852 13.8299 4.15768 13.8299 4.34448C13.8299 4.53129 13.7557 4.71044 13.6236 4.84253L13.6224 4.84136Z" fill="black"/>
</svg>
