<svg width="15" height="16" viewBox="0 0 15 16" fill="none" xmlns="http://www.w3.org/2000/svg">
<path d="M13.6224 5.2813L6.12244 12.7813C6.05711 12.8468 5.97949 12.8989 5.89403 12.9343C5.80856 12.9698 5.71693 12.9881 5.62439 12.9881C5.53185 12.9881 5.44022 12.9698 5.35475 12.9343C5.26928 12.8989 5.19166 12.8468 5.12634 12.7813L1.84509 9.50005C1.77969 9.43464 1.72781 9.357 1.69241 9.27154C1.65701 9.18609 1.63879 9.0945 1.63879 9.002C1.63879 8.90951 1.65701 8.81791 1.69241 8.73246C1.72781 8.64701 1.77969 8.56936 1.84509 8.50395C1.9105 8.43855 1.98814 8.38667 2.0736 8.35127C2.15905 8.31588 2.25064 8.29766 2.34314 8.29766C2.43563 8.29766 2.52722 8.31588 2.61268 8.35127C2.69813 8.38667 2.77578 8.43855 2.84119 8.50395L5.62497 11.2877L12.6275 4.28638C12.7596 4.15429 12.9388 4.08008 13.1256 4.08008C13.3124 4.08008 13.4915 4.15429 13.6236 4.28638C13.7557 4.41847 13.8299 4.59762 13.8299 4.78442C13.8299 4.97123 13.7557 5.15038 13.6236 5.28247L13.6224 5.2813Z" fill="black"/>
</svg>
