<svg width="15" height="16" viewBox="0 0 15 16" fill="none" xmlns="http://www.w3.org/2000/svg">
<path d="M13.6224 5.67143L6.12244 13.1714C6.05711 13.237 5.97949 13.289 5.89403 13.3245C5.80856 13.36 5.71693 13.3782 5.62439 13.3782C5.53185 13.3782 5.44022 13.36 5.35475 13.3245C5.26928 13.289 5.19166 13.237 5.12634 13.1714L1.84509 9.89018C1.77969 9.82478 1.72781 9.74713 1.69241 9.66168C1.65701 9.57622 1.63879 9.48463 1.63879 9.39214C1.63879 9.29964 1.65701 9.20805 1.69241 9.1226C1.72781 9.03714 1.77969 8.9595 1.84509 8.89409C1.9105 8.82869 1.98814 8.7768 2.0736 8.74141C2.15905 8.70601 2.25064 8.68779 2.34314 8.68779C2.43563 8.68779 2.52722 8.70601 2.61268 8.74141C2.69813 8.7768 2.77578 8.82869 2.84119 8.89409L5.62497 11.6779L12.6275 4.67651C12.7596 4.54442 12.9388 4.47021 13.1256 4.47021C13.3124 4.47021 13.4915 4.54442 13.6236 4.67651C13.7557 4.8086 13.8299 4.98776 13.8299 5.17456C13.8299 5.36136 13.7557 5.54052 13.6236 5.67261L13.6224 5.67143Z" fill="black"/>
</svg>
