<svg width="15" height="16" viewBox="0 0 15 16" fill="none" xmlns="http://www.w3.org/2000/svg">
<path d="M13.6224 5.23149L6.12244 12.7315C6.05711 12.797 5.97949 12.8491 5.89403 12.8845C5.80856 12.92 5.71693 12.9383 5.62439 12.9383C5.53185 12.9383 5.44022 12.92 5.35475 12.8845C5.26928 12.8491 5.19166 12.797 5.12634 12.7315L1.84509 9.45024C1.77969 9.38484 1.72781 9.30719 1.69241 9.22174C1.65701 9.13628 1.63879 9.04469 1.63879 8.9522C1.63879 8.8597 1.65701 8.76811 1.69241 8.68266C1.72781 8.5972 1.77969 8.51955 1.84509 8.45415C1.9105 8.38875 1.98814 8.33686 2.0736 8.30147C2.15905 8.26607 2.25064 8.24785 2.34314 8.24785C2.43563 8.24785 2.52722 8.26607 2.61268 8.30147C2.69813 8.33686 2.77578 8.38875 2.84119 8.45415L5.62497 11.2379L12.6275 4.23657C12.7596 4.10448 12.9388 4.03027 13.1256 4.03027C13.3124 4.03027 13.4915 4.10448 13.6236 4.23657C13.7557 4.36866 13.8299 4.54781 13.8299 4.73462C13.8299 4.92142 13.7557 5.10057 13.6236 5.23267L13.6224 5.23149Z" fill="black"/>
</svg>
