<svg width="17" height="20" viewBox="0 0 17 20" fill="none" xmlns="http://www.w3.org/2000/svg">
<path d="M2.78626 7.35366C2.73977 7.30722 2.70289 7.25207 2.67773 7.19138C2.65257 7.13068 2.63962 7.06561 2.63962 6.99991C2.63962 6.9342 2.65257 6.86913 2.67773 6.80844C2.70289 6.74774 2.73977 6.69259 2.78626 6.64616L4.78626 4.64616C4.85619 4.57615 4.94532 4.52847 5.04236 4.50914C5.1394 4.48982 5.24 4.49972 5.33141 4.53759C5.42282 4.57547 5.50094 4.63962 5.55587 4.72191C5.61081 4.80421 5.64009 4.90096 5.64001 4.99991V6.49991H13.14C13.2726 6.49991 13.3998 6.55258 13.4936 6.64635C13.5873 6.74012 13.64 6.8673 13.64 6.99991C13.64 7.13251 13.5873 7.25969 13.4936 7.35346C13.3998 7.44723 13.2726 7.49991 13.14 7.49991H5.64001V8.99991C5.64009 9.09885 5.61081 9.1956 5.55587 9.2779C5.50094 9.36019 5.42282 9.42434 5.33141 9.46222C5.24 9.50009 5.1394 9.51 5.04236 9.49067C4.94532 9.47134 4.85619 9.42366 4.78626 9.35366L2.78626 7.35366ZM13.4938 12.6462L11.4938 10.6462C11.4238 10.5761 11.3347 10.5285 11.2377 10.5091C11.1406 10.4898 11.04 10.4997 10.9486 10.5376C10.8572 10.5755 10.7791 10.6396 10.7242 10.7219C10.6692 10.8042 10.6399 10.901 10.64 10.9999V12.4999H3.14001C3.0074 12.4999 2.88023 12.5526 2.78646 12.6464C2.69269 12.7401 2.64001 12.8673 2.64001 12.9999C2.64001 13.1325 2.69269 13.2597 2.78646 13.3535C2.88023 13.4472 3.0074 13.4999 3.14001 13.4999H10.64V14.9999C10.6399 15.0989 10.6692 15.1956 10.7242 15.2779C10.7791 15.3602 10.8572 15.4243 10.9486 15.4622C11.04 15.5001 11.1406 15.51 11.2377 15.4907C11.3347 15.4713 11.4238 15.4237 11.4938 15.3537L13.4938 13.3537C13.5402 13.3072 13.5771 13.2521 13.6023 13.1914C13.6275 13.1307 13.6404 13.0656 13.6404 12.9999C13.6404 12.9342 13.6275 12.8691 13.6023 12.8084C13.5771 12.7477 13.5402 12.6926 13.4938 12.6462Z" fill="black" fill-opacity="0.4"/>
</svg>
