<svg width="374" height="69" viewBox="0 0 374 69" fill="none" xmlns="http://www.w3.org/2000/svg">
<g opacity="0.35">
<path d="M0.608887 68.5667C28.7015 58.9538 55.4639 46.6247 84.0146 38.1674C104.053 32.231 123.308 25.6277 144.504 25.6277C180.813 25.6277 208.763 53.399 243.465 60.86C249.597 62.1785 260.371 64.0199 265.805 60.1265C275.13 53.4413 281.786 43.9121 291.217 37.2494C306.939 26.1425 323.514 20.2277 342.489 26.0561C347.148 27.4871 353.332 27.3197 357.147 24.2822C363.361 19.334 366.884 12.2627 370.845 5.68734C372.049 3.69024 373.919 2.66694 373.919 0.304443" fill="white" fill-opacity="0.07"/>
<path d="M0.608887 68.5667C28.7015 58.9538 55.4639 46.6247 84.0146 38.1674C104.053 32.231 123.308 25.6277 144.504 25.6277C180.813 25.6277 208.763 53.399 243.465 60.86C249.597 62.1785 260.371 64.0199 265.805 60.1265C275.13 53.4413 281.786 43.9121 291.217 37.2494C306.939 26.1425 323.514 20.2277 342.489 26.0561C347.148 27.4871 353.332 27.3197 357.147 24.2822C363.361 19.334 366.884 12.2627 370.845 5.68734C372.049 3.69024 373.919 2.66694 373.919 0.304443" stroke="#12B76A" stroke-width="2.7" stroke-miterlimit="10" stroke-linecap="round"/>
</g>
</svg>
