<svg width="20" height="21" viewBox="0 0 20 21" fill="none" xmlns="http://www.w3.org/2000/svg">
<path d="M15.625 5.5V13.625C15.6251 13.7487 15.5885 13.8696 15.5198 13.9725C15.4511 14.0754 15.3535 14.1555 15.2392 14.2029C15.125 14.2502 14.9992 14.2626 14.8779 14.2385C14.7566 14.2143 14.6452 14.1547 14.5578 14.0672L10.9375 10.4461L5.44217 15.9422C5.32489 16.0595 5.16583 16.1253 4.99998 16.1253C4.83413 16.1253 4.67507 16.0595 4.55779 15.9422C4.44052 15.8249 4.37463 15.6659 4.37463 15.5C4.37463 15.3341 4.44052 15.1751 4.55779 15.0578L10.0539 9.5625L6.43279 5.94219C6.34529 5.85478 6.28568 5.74337 6.26153 5.62207C6.23737 5.50076 6.24975 5.37502 6.29709 5.26076C6.34444 5.14649 6.42462 5.04884 6.52749 4.98017C6.63036 4.91151 6.7513 4.8749 6.87498 4.875H15C15.1657 4.875 15.3247 4.94085 15.4419 5.05806C15.5591 5.17527 15.625 5.33424 15.625 5.5Z" fill="white"/>
</svg>
