<svg width="28" height="28" viewBox="0 0 28 28" fill="none" xmlns="http://www.w3.org/2000/svg">
<path d="M24.8559 23.673C24.7818 23.8013 24.6753 23.9079 24.547 23.9819C24.4187 24.056 24.2731 24.0949 24.125 24.0949H3.87499C3.72695 24.0948 3.58156 24.0557 3.45342 23.9815C3.32527 23.9074 3.21888 23.8009 3.14493 23.6727C3.07098 23.5444 3.03207 23.399 3.0321 23.2509C3.03214 23.1029 3.07113 22.9575 3.14515 22.8293C4.75143 20.0523 7.22679 18.061 10.1156 17.1171C8.68665 16.2664 7.57646 14.9703 6.95551 13.4276C6.33455 11.8849 6.23716 10.1811 6.67829 8.57767C7.11941 6.97429 8.07467 5.56004 9.39736 4.5521C10.72 3.54417 12.337 2.99829 14 2.99829C15.6629 2.99829 17.2799 3.54417 18.6026 4.5521C19.9253 5.56004 20.8806 6.97429 21.3217 8.57767C21.7628 10.1811 21.6654 11.8849 21.0445 13.4276C20.4235 14.9703 19.3133 16.2664 17.8844 17.1171C20.7732 18.061 23.2485 20.0523 24.8548 22.8293C24.929 22.9575 24.9682 23.1029 24.9684 23.251C24.9686 23.3991 24.9298 23.5447 24.8559 23.673Z" fill="black"/>
</svg>
