<svg width="64" height="64" viewBox="0 0 64 64" fill="none" xmlns="http://www.w3.org/2000/svg">
<mask id="mask0_327_1123" style="mask-type:luminance" maskUnits="userSpaceOnUse" x="-1" y="2" width="52" height="52">
<path d="M-0.491638 2.30396H50.5084V53.304H-0.491638V2.30396Z" fill="white"/>
</mask>
<g mask="url(#mask0_327_1123)">
<path fill-rule="evenodd" clip-rule="evenodd" d="M9.68545 44.1322L10.2636 44.7051L10.3209 44.7624C12.1125 46.6217 12.0969 49.6165 10.2636 51.4499C8.42503 53.2884 5.43024 53.304 3.57086 51.5072L3.51357 51.4499L2.93545 50.8822L1.36774 49.304C-0.48643 47.4499 -0.48643 44.4186 1.36774 42.5592C3.2219 40.7051 6.25836 40.7051 8.11253 42.5592L9.68545 44.1322ZM41.5084 18.0332L42.7063 16.8353L48.5865 10.9499C50.4407 9.10091 50.4407 6.06445 48.5865 4.20508C46.7271 2.35091 43.6959 2.35091 41.8417 4.20508L35.9615 10.0853L35.3157 10.7259L34.7584 11.2884L31.3886 14.6582C29.5344 16.5124 29.5344 19.5436 31.3886 21.4082L34.7584 24.778L35.3625 25.377L41.8834 31.8978C43.7375 33.752 46.774 33.752 48.6334 31.8978C50.4875 30.0436 50.4875 27.0072 48.6334 25.153L42.1073 18.627L41.5084 18.0332ZM1.63336 4.25195V4.24674C3.48753 2.39258 6.5292 2.39258 8.38336 4.24674L48.5396 44.4082C50.4042 46.2624 50.4042 49.304 48.5396 51.1582C46.6907 53.0124 43.6542 53.0124 41.7948 51.1582L1.63336 10.9915C-0.215597 9.13737 -0.215597 6.10612 1.63336 4.25195ZM1.57607 23.4759C3.43024 21.6217 6.4667 21.6217 8.32607 23.4759L29.3157 44.4655C31.1698 46.3197 31.1698 49.3613 29.3157 51.2155C27.4563 53.0697 24.4198 53.0697 22.5709 51.2155L16.0448 44.6947L1.57607 30.2259C-0.278097 28.3717 -0.278097 25.3301 1.57607 23.4759Z" fill="black"/>
</g>
</svg>