<svg width="21" height="21" viewBox="0 0 21 21" fill="none" xmlns="http://www.w3.org/2000/svg">
<path d="M8.27703 14.6965C8.24656 14.8176 7.48484 17.6699 3.295 17.6699C3.12924 17.6699 2.97027 17.6041 2.85306 17.4869C2.73585 17.3696 2.67 17.2107 2.67 17.0449C2.67 12.8551 5.52234 12.0934 5.64344 12.0629C5.80433 12.0227 5.9746 12.0481 6.11679 12.1334C6.25898 12.2187 6.36144 12.3571 6.40164 12.518C6.44184 12.6789 6.41647 12.8491 6.33113 12.9913C6.24578 13.1335 6.10745 13.236 5.94656 13.2762C5.87625 13.2957 4.195 13.7871 3.94969 16.3902C6.55281 16.1449 7.045 14.4668 7.06531 14.3887C7.10675 14.228 7.21032 14.0903 7.35325 14.006C7.49617 13.9217 7.66674 13.8976 7.82742 13.9391C7.9881 13.9805 8.12574 14.0841 8.21006 14.227C8.29438 14.3699 8.31847 14.5405 8.27703 14.7012V14.6965ZM15.5427 9.43085L15.17 9.80351V14.3605C15.1709 14.5253 15.1391 14.6886 15.0763 14.841C15.0135 14.9934 14.9211 15.1317 14.8044 15.248L12.1231 17.9277C12.0075 18.0442 11.87 18.1366 11.7184 18.1996C11.5669 18.2626 11.4044 18.295 11.2403 18.2949C11.1049 18.2949 10.9703 18.273 10.8419 18.2301C10.6213 18.1571 10.4256 18.0239 10.2767 17.8456C10.1279 17.6672 10.0319 17.4508 9.99968 17.2207L9.58015 14.2137L6.12625 10.7598L3.12078 10.3402C2.89042 10.3079 2.67365 10.212 2.49485 10.0632C2.31604 9.9144 2.1823 9.71867 2.10867 9.49802C2.03504 9.27737 2.02444 9.04055 2.07806 8.81421C2.13168 8.58786 2.24739 8.38096 2.41219 8.21679L5.09187 5.53554C5.20818 5.41881 5.34654 5.32637 5.49891 5.2636C5.65127 5.20084 5.81459 5.16899 5.97937 5.16992H10.5364L10.9091 4.79726C12.9934 2.71367 15.5052 2.62382 16.488 2.68242C16.7927 2.70094 17.0801 2.83035 17.296 3.04623C17.5119 3.26212 17.6413 3.54955 17.6598 3.85429C17.7169 4.83476 17.627 7.34648 15.5434 9.43085H15.5427ZM3.295 9.10273L6.19734 9.50742L9.2864 6.41992H5.97937L3.295 9.10273ZM7.30437 10.1699L10.17 13.0355L14.6583 8.54726C15.2631 7.94648 15.7324 7.22318 16.0345 6.42598C16.3366 5.62878 16.4646 4.77615 16.4098 3.92539C15.5595 3.87266 14.7077 4.00197 13.9114 4.3047C13.115 4.60742 12.3924 5.07659 11.7919 5.68086L7.30437 10.1699ZM13.92 11.0535L10.8317 14.1418L11.238 17.0449L13.92 14.3605V11.0535Z" fill="black"/>
</svg>
