<svg xmlns="http://www.w3.org/2000/svg" xmlns:xlink="http://www.w3.org/1999/xlink" width="510" height="90" viewBox="68 165 255 45" version="1.0"><defs><g/><clipPath id="78d4b39ccc"><path d="M 68.59375 168.355469 L 106.84375 168.355469 L 106.84375 206.605469 L 68.59375 206.605469 Z M 68.59375 168.355469 " clip-rule="nonzero"/></clipPath><clipPath id="f4031c41a3"><rect x="0" width="205" y="0" height="42"/></clipPath></defs><g clip-path="url(#78d4b39ccc)"><path fill="#000000" d="M 76.226562 199.726562 L 76.660156 200.15625 L 76.703125 200.199219 C 78.046875 201.59375 78.035156 203.839844 76.660156 205.214844 C 75.28125 206.59375 73.035156 206.605469 71.640625 205.257812 L 71.597656 205.214844 L 71.164062 204.789062 L 69.988281 203.605469 C 68.597656 202.214844 68.597656 199.941406 69.988281 198.546875 C 71.378906 197.15625 73.65625 197.15625 75.046875 198.546875 Z M 100.09375 180.152344 L 100.992188 179.253906 L 105.402344 174.839844 C 106.792969 173.453125 106.792969 171.175781 105.402344 169.78125 C 104.007812 168.390625 101.734375 168.390625 100.34375 169.78125 L 95.933594 174.191406 L 95.449219 174.671875 L 95.03125 175.09375 L 92.503906 177.621094 C 91.113281 179.011719 91.113281 181.285156 92.503906 182.683594 L 95.03125 185.210938 L 95.484375 185.660156 L 100.375 190.550781 C 101.765625 191.941406 104.042969 191.941406 105.4375 190.550781 C 106.828125 189.160156 106.828125 186.882812 105.4375 185.492188 L 100.542969 180.597656 Z M 70.1875 169.816406 L 70.1875 169.8125 C 71.578125 168.421875 73.859375 168.421875 75.25 169.8125 L 105.367188 199.933594 C 106.765625 201.324219 106.765625 203.605469 105.367188 204.996094 C 103.980469 206.386719 101.703125 206.386719 100.308594 204.996094 L 70.1875 174.871094 C 68.800781 173.480469 68.800781 171.207031 70.1875 169.816406 Z M 70.144531 184.234375 C 71.535156 182.84375 73.8125 182.84375 75.207031 184.234375 L 90.949219 199.976562 C 92.339844 201.367188 92.339844 203.648438 90.949219 205.039062 C 89.554688 206.429688 87.277344 206.429688 85.890625 205.039062 L 80.996094 200.148438 L 70.144531 189.296875 C 68.753906 187.90625 68.753906 185.625 70.144531 184.234375 Z M 70.144531 184.234375 " fill-opacity="1" fill-rule="evenodd"/></g><g transform="matrix(1, 0, 0, 1, 113, 166)"><g clip-path="url(#f4031c41a3)"><g fill="#000000" fill-opacity="1"><g transform="translate(1.011523, 30.856851)"><g><path d="M 8.59375 0 L 0.46875 -22.1875 L 4.8125 -22.1875 L 11.09375 -4.15625 L 17.390625 -22.1875 L 21.671875 -22.1875 L 13.5625 0 Z M 8.59375 0 "/></g></g></g><g fill="#000000" fill-opacity="1"><g transform="translate(28.064078, 30.856851)"><g><path d="M 2.15625 0 L 2.15625 -22.1875 L 16.640625 -22.1875 L 16.640625 -18.921875 L 6.203125 -18.921875 L 6.203125 -12.828125 L 15.6875 -12.828125 L 15.6875 -9.671875 L 6.203125 -9.671875 L 6.203125 -3.265625 L 16.640625 -3.265625 L 16.640625 0 Z M 2.15625 0 "/></g></g></g><g fill="#000000" fill-opacity="1"><g transform="translate(51.284093, 30.856851)"><g><path d="M 1.484375 0 L 1.484375 -3.109375 L 11.6875 -18.796875 L 1.578125 -18.796875 L 1.578125 -22.1875 L 16.375 -22.1875 L 16.375 -19.078125 L 6.109375 -3.390625 L 16.453125 -3.390625 L 16.453125 0 Z M 1.484375 0 "/></g></g></g><g fill="#000000" fill-opacity="1"><g transform="translate(74.137269, 30.856851)"><g><path d="M 9.03125 0 L 0.703125 -22.1875 L 3.578125 -22.1875 L 10.578125 -2.8125 L 17.65625 -22.1875 L 20.46875 -22.1875 L 12.140625 0 Z M 9.03125 0 "/></g></g></g><g fill="#000000" fill-opacity="1"><g transform="translate(100.207939, 30.856851)"><g><path d="M 2.34375 0 L 2.34375 -22.1875 L 5 -22.1875 L 5 0 Z M 2.34375 0 "/></g></g></g><g fill="#000000" fill-opacity="1"><g transform="translate(112.468805, 30.856851)"><g><path d="M 9.40625 0.375 C 7.78125 0.375 6.363281 0.0820312 5.15625 -0.5 C 3.957031 -1.09375 3.03125 -1.914062 2.375 -2.96875 C 1.71875 -4.03125 1.390625 -5.257812 1.390625 -6.65625 L 4.1875 -6.65625 C 4.1875 -5.789062 4.382812 -4.992188 4.78125 -4.265625 C 5.1875 -3.535156 5.773438 -2.953125 6.546875 -2.515625 C 7.316406 -2.085938 8.269531 -1.875 9.40625 -1.875 C 10.90625 -1.875 12.066406 -2.234375 12.890625 -2.953125 C 13.710938 -3.671875 14.125 -4.566406 14.125 -5.640625 C 14.125 -6.523438 13.929688 -7.238281 13.546875 -7.78125 C 13.171875 -8.320312 12.660156 -8.757812 12.015625 -9.09375 C 11.378906 -9.425781 10.644531 -9.71875 9.8125 -9.96875 C 8.976562 -10.226562 8.101562 -10.519531 7.1875 -10.84375 C 5.476562 -11.425781 4.210938 -12.15625 3.390625 -13.03125 C 2.566406 -13.914062 2.15625 -15.066406 2.15625 -16.484375 C 2.132812 -17.660156 2.40625 -18.707031 2.96875 -19.625 C 3.539062 -20.550781 4.347656 -21.269531 5.390625 -21.78125 C 6.441406 -22.300781 7.6875 -22.5625 9.125 -22.5625 C 10.539062 -22.5625 11.769531 -22.296875 12.8125 -21.765625 C 13.863281 -21.242188 14.675781 -20.515625 15.25 -19.578125 C 15.832031 -18.648438 16.132812 -17.597656 16.15625 -16.421875 L 13.375 -16.421875 C 13.375 -17.023438 13.210938 -17.628906 12.890625 -18.234375 C 12.578125 -18.835938 12.097656 -19.328125 11.453125 -19.703125 C 10.804688 -20.085938 10 -20.28125 9.03125 -20.28125 C 7.820312 -20.300781 6.832031 -19.992188 6.0625 -19.359375 C 5.289062 -18.722656 4.90625 -17.847656 4.90625 -16.734375 C 4.90625 -15.785156 5.175781 -15.054688 5.71875 -14.546875 C 6.257812 -14.035156 7.015625 -13.613281 7.984375 -13.28125 C 8.953125 -12.957031 10.070312 -12.585938 11.34375 -12.171875 C 12.394531 -11.785156 13.34375 -11.335938 14.1875 -10.828125 C 15.039062 -10.328125 15.703125 -9.675781 16.171875 -8.875 C 16.648438 -8.070312 16.890625 -7.046875 16.890625 -5.796875 C 16.890625 -4.742188 16.613281 -3.742188 16.0625 -2.796875 C 15.507812 -1.859375 14.679688 -1.09375 13.578125 -0.5 C 12.472656 0.0820312 11.082031 0.375 9.40625 0.375 Z M 9.40625 0.375 "/></g></g></g><g fill="#000000" fill-opacity="1"><g transform="translate(135.688819, 30.856851)"><g><path d="M 2.34375 0 L 2.34375 -22.1875 L 5 -22.1875 L 5 0 Z M 2.34375 0 "/></g></g></g><g fill="#000000" fill-opacity="1"><g transform="translate(147.949685, 30.856851)"><g><path d="M 12.421875 0.375 C 10.242188 0.375 8.335938 -0.101562 6.703125 -1.0625 C 5.066406 -2.019531 3.785156 -3.363281 2.859375 -5.09375 C 1.941406 -6.832031 1.484375 -8.832031 1.484375 -11.09375 C 1.484375 -13.351562 1.941406 -15.34375 2.859375 -17.0625 C 3.785156 -18.78125 5.066406 -20.125 6.703125 -21.09375 C 8.335938 -22.070312 10.242188 -22.5625 12.421875 -22.5625 C 14.617188 -22.5625 16.535156 -22.070312 18.171875 -21.09375 C 19.804688 -20.125 21.078125 -18.78125 21.984375 -17.0625 C 22.898438 -15.34375 23.359375 -13.351562 23.359375 -11.09375 C 23.359375 -8.832031 22.898438 -6.832031 21.984375 -5.09375 C 21.078125 -3.363281 19.804688 -2.019531 18.171875 -1.0625 C 16.535156 -0.101562 14.617188 0.375 12.421875 0.375 Z M 12.421875 -1.96875 C 14.046875 -1.96875 15.472656 -2.332031 16.703125 -3.0625 C 17.941406 -3.789062 18.90625 -4.832031 19.59375 -6.1875 C 20.28125 -7.550781 20.625 -9.1875 20.625 -11.09375 C 20.625 -12.988281 20.28125 -14.613281 19.59375 -15.96875 C 18.90625 -17.320312 17.941406 -18.363281 16.703125 -19.09375 C 15.472656 -19.820312 14.046875 -20.1875 12.421875 -20.1875 C 10.796875 -20.1875 9.363281 -19.820312 8.125 -19.09375 C 6.894531 -18.363281 5.9375 -17.320312 5.25 -15.96875 C 4.5625 -14.613281 4.21875 -12.988281 4.21875 -11.09375 C 4.21875 -9.1875 4.5625 -7.550781 5.25 -6.1875 C 5.9375 -4.832031 6.894531 -3.789062 8.125 -3.0625 C 9.363281 -2.332031 10.796875 -1.96875 12.421875 -1.96875 Z M 12.421875 -1.96875 "/></g></g></g><g fill="#000000" fill-opacity="1"><g transform="translate(177.694525, 30.856851)"><g><path d="M 2.34375 0 L 2.34375 -22.1875 L 5 -22.1875 L 16.828125 -4.40625 L 16.828125 -22.1875 L 19.484375 -22.1875 L 19.484375 0 L 16.828125 0 L 5 -17.78125 L 5 0 Z M 2.34375 0 "/></g></g></g></g></g></svg>