<svg width="84" height="84" viewBox="0 0 84 84" fill="none" xmlns="http://www.w3.org/2000/svg">
<rect x="0.494995" y="0.5" width="83" height="83" rx="41.5" fill="url(#paint0_linear_327_330)" shape-rendering="crispEdges"/>
<mask id="mask0_327_330" style="mask-type:luminance" maskUnits="userSpaceOnUse" x="16" y="16" width="52" height="52">
<path d="M16.495 16.5H67.495V67.5H16.495V16.5Z" fill="white"/>
</mask>
<g mask="url(#mask0_327_330)">
<path fill-rule="evenodd" clip-rule="evenodd" d="M26.6721 58.3281L27.2502 58.901L27.3075 58.9583C29.0992 60.8177 29.0835 63.8125 27.2502 65.6458C25.4117 67.4843 22.4169 67.5 20.5575 65.7031L20.5002 65.6458L19.9221 65.0781L18.3544 63.5C16.5002 61.6458 16.5002 58.6145 18.3544 56.7552C20.2085 54.901 23.245 54.901 25.0992 56.7552L26.6721 58.3281ZM58.495 32.2291L65.5731 25.151C67.4273 23.2968 67.4273 20.2604 65.5731 18.401C63.7137 16.5468 60.6825 16.5468 58.8283 18.401L52.9481 24.2812L52.3023 24.9218L51.745 25.4843L48.3752 28.8541C46.521 30.7083 46.521 33.7395 48.3752 35.6041L51.745 38.9739L52.3492 39.5729L58.87 46.0937C60.7242 47.9479 63.7606 47.9479 65.62 46.0937C67.4742 44.2395 67.4742 41.2031 65.62 39.3489L59.094 32.8229L58.495 32.2291ZM18.62 18.4479V18.4427C20.4742 16.5885 23.5158 16.5885 25.37 18.4427L65.5262 58.6041C67.3908 60.4583 67.3908 63.5 65.5262 65.3541C63.6773 67.2083 60.6408 67.2083 58.7815 65.3541L18.62 25.1875C16.771 23.3333 16.771 20.302 18.62 18.4479ZM18.5627 37.6718C20.4169 35.8177 23.4533 35.8177 25.3127 37.6718L46.3023 58.6614C48.1565 60.5156 48.1565 63.5573 46.3023 65.4114C44.4429 67.2656 41.4065 67.2656 39.5575 65.4114L33.0315 58.8906L18.5627 44.4218C16.7085 42.5677 16.7085 39.526 18.5627 37.6718Z" fill="white"/>
</g>
<defs>
<linearGradient id="paint0_linear_327_330" x1="0.494995" y1="42" x2="83.495" y2="42" gradientUnits="userSpaceOnUse">
<stop/>
<stop offset="1" stop-opacity="0.4"/>
</linearGradient>
</defs>
</svg>
