<svg width="180" height="30" viewBox="0 0 180 30" fill="none" xmlns="http://www.w3.org/2000/svg">
<g clip-path="url(#clip0_327_2235)">
<mask id="mask0_327_2235" style="mask-type:luminance" maskUnits="userSpaceOnUse" x="0" y="1" width="27" height="28">
<path d="M0 1.5H27V28.5H0V1.5Z" fill="white"/>
</mask>
<g mask="url(#mask0_327_2235)">
<path fill-rule="evenodd" clip-rule="evenodd" d="M5.38788 23.6443L5.69394 23.9476L5.72427 23.9779C6.6728 24.9623 6.66453 26.5478 5.69394 27.5184C4.7206 28.4917 3.13512 28.5 2.15074 27.5487L2.12041 27.5184L1.81435 27.2178L0.984382 26.3824C0.00276452 25.4007 0.00276452 23.796 0.984382 22.8116C1.966 21.83 3.57354 21.83 4.55515 22.8116L5.38788 23.6443ZM22.2353 9.8272L22.8695 9.19301L25.9825 6.0772C26.9642 5.09834 26.9642 3.49081 25.9825 2.50643C24.9982 1.52481 23.3934 1.52481 22.4118 2.50643L19.2987 5.61948L18.9568 5.95864L18.6618 6.25643L16.8778 8.04044C15.8961 9.02206 15.8961 10.6268 16.8778 11.614L18.6618 13.398L18.9816 13.7151L22.4338 17.1673C23.4154 18.1489 25.023 18.1489 26.0074 17.1673C26.989 16.1857 26.989 14.5781 26.0074 13.5965L22.5524 10.1415L22.2353 9.8272ZM1.12501 2.53125V2.52849C2.10662 1.54687 3.71692 1.54687 4.69854 2.52849L25.9577 23.7904C26.9449 24.7721 26.9449 26.3824 25.9577 27.364C24.9789 28.3456 23.3713 28.3456 22.387 27.364L1.12501 6.09926C0.146147 5.11764 0.146147 3.51286 1.12501 2.53125ZM1.09468 12.7086C2.07629 11.727 3.68383 11.727 4.66821 12.7086L15.7803 23.8208C16.762 24.8024 16.762 26.4127 15.7803 27.3943C14.796 28.3759 13.1884 28.3759 12.2096 27.3943L8.7546 23.9421L1.09468 16.2822C0.113059 15.3005 0.113059 13.6903 1.09468 12.7086Z" fill="black"/>
</g>
<mask id="mask1_327_2235" style="mask-type:luminance" maskUnits="userSpaceOnUse" x="27" y="0" width="153" height="30">
<path d="M180 0.236435H27V29.7636H180V0.236435Z" fill="white"/>
</mask>
<g mask="url(#mask1_327_2235)">
<path d="M34.1836 23.0954L28.1195 7.49702H31.3615L36.0494 20.1735L40.749 7.49702H43.9443L37.8919 23.0954H34.1836Z" fill="black"/>
<path d="M49.5694 23.0954V7.49702H60.3797V9.79285H52.5898V14.0769H59.6683V16.2958H52.5898V20.7996H60.3797V23.0954H49.5694Z" fill="black"/>
<path d="M66.398 23.0954V20.9095L74.013 9.88073H66.468V7.49702H77.5115V9.683L69.8499 20.7117H77.5698V23.0954H66.398Z" fill="black"/>
<path d="M89.0868 23.0954L82.8712 7.49702H85.0169L90.2413 21.1182L95.524 7.49702H97.6231L91.4075 23.0954H89.0868Z" fill="black"/>
<path d="M103.553 23.0954V7.49702H105.536V23.0954H103.553Z" fill="black"/>
<path d="M117.975 23.3591C116.762 23.3591 115.704 23.1531 114.803 22.7439C113.908 22.3265 113.217 21.7498 112.727 21.0083C112.238 20.2614 111.993 19.399 111.993 18.4159H114.08C114.08 19.0256 114.226 19.5858 114.523 20.0966C114.827 20.6101 115.264 21.0193 115.841 21.3269C116.415 21.629 117.127 21.7773 117.975 21.7773C119.095 21.7773 119.961 21.5246 120.576 21.0193C121.188 20.514 121.497 19.8851 121.497 19.1299C121.497 18.5093 121.351 18.0067 121.065 17.625C120.786 17.246 120.404 16.9385 119.923 16.7023C119.447 16.4689 118.899 16.2629 118.278 16.0871C117.654 15.9059 117.001 15.6999 116.319 15.472C115.042 15.0628 114.098 14.5493 113.485 13.9341C112.87 13.3135 112.564 12.5033 112.564 11.5065C112.547 10.6799 112.751 9.94388 113.171 9.29853C113.596 8.64768 114.2 8.14238 114.978 7.78262C115.762 7.41738 116.692 7.23338 117.765 7.23338C118.821 7.23338 119.739 7.42012 120.517 7.79361C121.302 8.1616 121.908 8.67239 122.337 9.33148C122.771 9.98507 122.995 10.7238 123.013 11.5504H120.937C120.937 11.1275 120.815 10.7018 120.576 10.2762C120.342 9.85326 119.984 9.50724 119.503 9.2436C119.019 8.97447 118.418 8.83716 117.695 8.83716C116.792 8.82343 116.054 9.04038 115.48 9.48527C114.902 9.9329 114.617 10.548 114.617 11.3307C114.617 11.998 114.818 12.5116 115.223 12.8686C115.625 13.2283 116.191 13.5249 116.914 13.7584C117.637 13.9863 118.471 14.2472 119.421 14.5383C120.205 14.8101 120.914 15.126 121.544 15.483C122.179 15.8345 122.675 16.2931 123.025 16.8561C123.38 17.4218 123.561 18.1413 123.561 19.0201C123.561 19.7615 123.354 20.4646 122.943 21.1292C122.529 21.7882 121.911 22.3265 121.089 22.7439C120.264 23.1531 119.226 23.3591 117.975 23.3591Z" fill="black"/>
<path d="M130.034 23.0954V7.49702H132.017V23.0954H130.034Z" fill="black"/>
<path d="M146.707 23.3591C145.08 23.3591 143.657 23.024 142.439 22.3485C141.217 21.6756 140.261 20.731 139.57 19.5144C138.885 18.2923 138.544 16.8863 138.544 15.2962C138.544 13.7089 138.885 12.3084 139.57 11.1C140.261 9.8917 141.217 8.94701 142.439 8.26595C143.657 7.5794 145.08 7.23338 146.707 7.23338C148.345 7.23338 149.777 7.5794 150.998 8.26595C152.217 8.94701 153.167 9.8917 153.844 11.1C154.526 12.3084 154.87 13.7089 154.87 15.2962C154.87 16.8863 154.526 18.2923 153.844 19.5144C153.167 20.731 152.217 21.6756 150.998 22.3485C149.777 23.024 148.345 23.3591 146.707 23.3591ZM146.707 21.7113C147.919 21.7113 148.984 21.456 149.902 20.9424C150.826 20.4316 151.546 19.6984 152.059 18.7455C152.572 17.787 152.829 16.6364 152.829 15.2962C152.829 13.9643 152.572 12.8219 152.059 11.869C151.546 10.9188 150.826 10.1855 149.902 9.67201C148.984 9.16122 147.919 8.90307 146.707 8.90307C145.494 8.90307 144.424 9.16122 143.5 9.67201C142.581 10.1855 141.867 10.9188 141.354 11.869C140.841 12.8219 140.584 13.9643 140.584 15.2962C140.584 16.6364 140.841 17.787 141.354 18.7455C141.867 19.6984 142.581 20.4316 143.5 20.9424C144.424 21.456 145.494 21.7113 146.707 21.7113Z" fill="black"/>
<path d="M161.385 23.0954V7.49702H163.367L172.195 19.9977V7.49702H174.178V23.0954H172.195L163.367 10.5947V23.0954H161.385Z" fill="black"/>
</g>
</g>
<defs>
<clipPath id="clip0_327_2235">
<rect width="180" height="29.5271" fill="white" transform="translate(0 0.236435)"/>
</clipPath>
</defs>
</svg>
