<svg width="21" height="21" viewBox="0 0 21 21" fill="none" xmlns="http://www.w3.org/2000/svg">
<path d="M20.1571 10.6121L18.2821 12.4871C18.2241 12.5452 18.1552 12.5913 18.0793 12.6228C18.0034 12.6542 17.9221 12.6704 17.8399 12.6704C17.7578 12.6704 17.6765 12.6542 17.6006 12.6228C17.5247 12.5913 17.4558 12.5452 17.3978 12.4871L15.5228 10.6121C15.4055 10.4948 15.3396 10.3358 15.3396 10.1699C15.3396 10.004 15.4055 9.84499 15.5228 9.72771C15.64 9.61044 15.7991 9.54455 15.9649 9.54455C16.1308 9.54455 16.2899 9.61044 16.4071 9.72771L17.2149 10.5363V10.1699C17.2157 8.71415 16.7543 7.29574 15.8972 6.119C15.0402 4.94227 13.8317 4.06796 12.446 3.62202C11.0602 3.17608 9.56862 3.18154 8.18615 3.6376C6.80367 4.09366 5.60165 4.97678 4.75323 6.15975C4.65647 6.29443 4.51016 6.38515 4.34651 6.41196C4.18286 6.43878 4.01525 6.39948 3.88057 6.30271C3.74589 6.20595 3.65517 6.05965 3.62835 5.896C3.60154 5.73234 3.64084 5.56474 3.7376 5.43006C4.74033 4.03203 6.16095 2.98837 7.79481 2.44945C9.42867 1.91052 11.1914 1.90414 12.8292 2.43122C14.4669 2.95831 15.895 3.99165 16.9078 5.38238C17.9207 6.77311 18.4659 8.44945 18.4649 10.1699V10.5363L19.2728 9.72771C19.39 9.61044 19.5491 9.54455 19.7149 9.54455C19.8808 9.54455 20.0399 9.61044 20.1571 9.72772C20.2744 9.84499 20.3403 10.004 20.3403 10.1699C20.3403 10.3358 20.2744 10.4948 20.1571 10.6121ZM16.9399 14.909C15.9369 16.3059 14.5165 17.3486 12.8832 17.8869C11.2498 18.4252 9.48782 18.4314 7.85075 17.9045C6.21369 17.3777 4.78602 16.3449 3.77326 14.955C2.7605 13.5651 2.21488 11.8897 2.21495 10.1699V9.8035L1.40713 10.6121C1.28986 10.7294 1.1308 10.7952 0.964947 10.7952C0.799095 10.7952 0.640035 10.7294 0.52276 10.6121C0.405484 10.4948 0.3396 10.3358 0.3396 10.1699C0.3396 10.004 0.405484 9.84499 0.52276 9.72771L2.39776 7.85271C2.45581 7.7946 2.52474 7.74851 2.60061 7.71705C2.67648 7.6856 2.75781 7.66941 2.83995 7.66941C2.92208 7.66941 3.00341 7.6856 3.07928 7.71705C3.15516 7.74851 3.22409 7.7946 3.28213 7.85271L5.15713 9.72771C5.27441 9.84499 5.34029 10.004 5.34029 10.1699C5.34029 10.3358 5.27441 10.4948 5.15713 10.6121C5.03986 10.7294 4.8808 10.7952 4.71495 10.7952C4.54909 10.7952 4.39004 10.7294 4.27276 10.6121L3.46495 9.8035V10.1699C3.46347 11.8529 4.08202 13.4774 5.20245 14.7332C5.8995 13.7231 6.87965 12.9416 8.01963 12.4871C7.40728 12.0048 6.96044 11.3436 6.74125 10.5956C6.52207 9.84757 6.54143 9.04982 6.79666 8.3133C7.05188 7.57678 7.53027 6.93809 8.16531 6.48607C8.80034 6.03404 9.56046 5.79113 10.3399 5.79113C11.1194 5.79113 11.8795 6.03404 12.5146 6.48607C13.1496 6.93809 13.628 7.57678 13.8832 8.3133C14.1385 9.04982 14.1578 9.84757 13.9386 10.5956C13.7195 11.3436 13.2726 12.0048 12.6603 12.4871C13.8013 12.9417 14.7821 13.7241 15.479 14.7355C15.637 14.5581 15.7859 14.3727 15.9251 14.1801C16.0219 14.0454 16.1682 13.9547 16.3318 13.9278C16.4955 13.901 16.6631 13.9403 16.7978 14.0371C16.9324 14.1339 17.0232 14.2802 17.05 14.4438C17.0768 14.6075 17.0375 14.7751 16.9407 14.9097L16.9399 14.909ZM10.3399 12.0449C10.8344 12.0449 11.3177 11.8983 11.7289 11.6236C12.14 11.3489 12.4604 10.9584 12.6496 10.5016C12.8389 10.0448 12.8884 9.54213 12.7919 9.05718C12.6954 8.57222 12.4573 8.12677 12.1077 7.77714C11.7581 7.4275 11.3126 7.1894 10.8277 7.09294C10.3427 6.99648 9.84005 7.04598 9.38324 7.2352C8.92642 7.42442 8.53598 7.74485 8.26127 8.15598C7.98657 8.5671 7.83995 9.05045 7.83995 9.5449C7.83995 10.2079 8.10334 10.8438 8.57218 11.3127C9.04102 11.7815 9.67691 12.0449 10.3399 12.0449ZM10.3399 17.0449C11.8653 17.0429 13.3469 16.5349 14.5524 15.6004C14.1003 14.8932 13.4774 14.3113 12.7413 13.9082C12.0051 13.5051 11.1793 13.2939 10.3399 13.2939C9.50063 13.2939 8.67482 13.5051 7.93864 13.9082C7.20245 14.3113 6.57958 14.8932 6.12745 15.6004C7.33122 16.5382 8.81398 17.0467 10.3399 17.0449Z" fill="black"/>
</svg>
