<svg width="21" height="21" viewBox="0 0 21 21" fill="none" xmlns="http://www.w3.org/2000/svg">
<path d="M18.2098 13.6074C18.2924 13.7506 18.3148 13.9207 18.2722 14.0805C18.2296 14.2402 18.1254 14.3766 17.9825 14.4597L10.4825 18.8347C10.3869 18.8904 10.2783 18.9198 10.1676 18.9198C10.057 18.9198 9.94836 18.8904 9.8528 18.8347L2.3528 14.4597C2.21193 14.3751 2.11008 14.2383 2.06928 14.0791C2.02848 13.9199 2.05203 13.7511 2.13483 13.6091C2.21762 13.4672 2.353 13.3635 2.51165 13.3206C2.67029 13.2778 2.83945 13.2991 2.98248 13.38L10.17 17.5714L17.3575 13.38C17.5007 13.2975 17.6709 13.275 17.8306 13.3177C17.9904 13.3603 18.1267 13.4644 18.2098 13.6074ZM17.3575 9.63002L10.17 13.8214L2.98248 9.63002C2.84017 9.55916 2.67621 9.5452 2.52397 9.59097C2.37173 9.63674 2.24265 9.7388 2.16301 9.87639C2.08337 10.014 2.05914 10.1767 2.09527 10.3315C2.1314 10.4864 2.22517 10.6216 2.35748 10.7097L9.85748 15.0847C9.95305 15.1404 10.0617 15.1698 10.1723 15.1698C10.283 15.1698 10.3916 15.1404 10.4872 15.0847L17.9872 10.7097C18.0592 10.6689 18.1224 10.6143 18.1732 10.5489C18.2239 10.4835 18.2612 10.4087 18.2828 10.3288C18.3043 10.2489 18.3099 10.1655 18.299 10.0835C18.2881 10.0014 18.261 9.92236 18.2193 9.85086C18.1776 9.77937 18.1221 9.71686 18.0561 9.66698C17.99 9.61711 17.9147 9.58084 17.8346 9.56029C17.7544 9.53975 17.6709 9.53533 17.589 9.5473C17.5071 9.55927 17.4284 9.58739 17.3575 9.63002ZM2.04498 6.41986C2.04523 6.31039 2.07423 6.20291 2.12907 6.10817C2.18391 6.01343 2.26268 5.93475 2.35748 5.88002L9.85748 1.50502C9.95305 1.44929 10.0617 1.41992 10.1723 1.41992C10.283 1.41992 10.3916 1.44929 10.4872 1.50502L17.9872 5.88002C18.0815 5.93506 18.1598 6.01387 18.2142 6.10859C18.2686 6.20331 18.2972 6.31063 18.2972 6.41986C18.2972 6.52909 18.2686 6.63641 18.2142 6.73113C18.1598 6.82585 18.0815 6.90466 17.9872 6.9597L10.4872 11.3347C10.3916 11.3904 10.283 11.4198 10.1723 11.4198C10.0617 11.4198 9.95305 11.3904 9.85748 11.3347L2.35748 6.9597C2.26268 6.90497 2.18391 6.82629 2.12907 6.73155C2.07423 6.63681 2.04523 6.52933 2.04498 6.41986ZM3.91061 6.41986L10.17 10.0714L16.4294 6.41986L10.17 2.7683L3.91061 6.41986Z" fill="black"/>
</svg>
