<svg width="21" height="21" viewBox="0 0 21 21" fill="none" xmlns="http://www.w3.org/2000/svg">
<path d="M15.795 3.91992H10.795V1.41992C10.795 1.25416 10.7292 1.09519 10.6119 0.97798C10.4947 0.86077 10.3358 0.794922 10.17 0.794922C10.0042 0.794922 9.84527 0.86077 9.72806 0.97798C9.61085 1.09519 9.545 1.25416 9.545 1.41992V3.91992H4.545C3.88196 3.91992 3.24607 4.18331 2.77723 4.65215C2.30839 5.121 2.045 5.75688 2.045 6.41992V15.1699C2.045 15.833 2.30839 16.4688 2.77723 16.9377C3.24607 17.4065 3.88196 17.6699 4.545 17.6699H15.795C16.458 17.6699 17.0939 17.4065 17.5628 16.9377C18.0316 16.4688 18.295 15.833 18.295 15.1699V6.41992C18.295 5.75688 18.0316 5.121 17.5628 4.65215C17.0939 4.18331 16.458 3.91992 15.795 3.91992ZM17.045 15.1699C17.045 15.5014 16.9133 15.8194 16.6789 16.0538C16.4445 16.2882 16.1265 16.4199 15.795 16.4199H4.545C4.21348 16.4199 3.89554 16.2882 3.66111 16.0538C3.42669 15.8194 3.295 15.5014 3.295 15.1699V6.41992C3.295 6.0884 3.42669 5.77046 3.66111 5.53604C3.89554 5.30162 4.21348 5.16992 4.545 5.16992H15.795C16.1265 5.16992 16.4445 5.30162 16.6789 5.53604C16.9133 5.77046 17.045 6.0884 17.045 6.41992V15.1699ZM12.9825 10.7949H7.3575C6.77734 10.7949 6.22094 11.0254 5.8107 11.4356C5.40047 11.8459 5.17 12.4023 5.17 12.9824C5.17 13.5626 5.40047 14.119 5.8107 14.5292C6.22094 14.9395 6.77734 15.1699 7.3575 15.1699H12.9825C13.5627 15.1699 14.1191 14.9395 14.5293 14.5292C14.9395 14.119 15.17 13.5626 15.17 12.9824C15.17 12.4023 14.9395 11.8459 14.5293 11.4356C14.1191 11.0254 13.5627 10.7949 12.9825 10.7949ZM10.795 12.0449V13.9199H9.545V12.0449H10.795ZM6.42 12.9824C6.42 12.7338 6.51877 12.4953 6.69459 12.3195C6.8704 12.1437 7.10886 12.0449 7.3575 12.0449H8.295V13.9199H7.3575C7.10886 13.9199 6.8704 13.8211 6.69459 13.6453C6.51877 13.4695 6.42 13.2311 6.42 12.9824ZM12.9825 13.9199H12.045V12.0449H12.9825C13.2311 12.0449 13.4696 12.1437 13.6454 12.3195C13.8212 12.4953 13.92 12.7338 13.92 12.9824C13.92 13.2311 13.8212 13.4695 13.6454 13.6453C13.4696 13.8211 13.2311 13.9199 12.9825 13.9199ZM5.795 8.60742C5.795 8.422 5.84998 8.24075 5.953 8.08658C6.05601 7.9324 6.20243 7.81224 6.37373 7.74128C6.54504 7.67033 6.73354 7.65176 6.9154 7.68794C7.09725 7.72411 7.2643 7.8134 7.39541 7.94451C7.52652 8.07562 7.61581 8.24267 7.65198 8.42452C7.68816 8.60638 7.66959 8.79488 7.59864 8.96619C7.52768 9.13749 7.40752 9.28391 7.25335 9.38692C7.09917 9.48994 6.91792 9.54492 6.7325 9.54492C6.48386 9.54492 6.2454 9.44615 6.06959 9.27033C5.89377 9.09452 5.795 8.85606 5.795 8.60742ZM12.67 8.60742C12.67 8.422 12.725 8.24075 12.828 8.08658C12.931 7.9324 13.0774 7.81224 13.2487 7.74128C13.42 7.67033 13.6085 7.65176 13.7904 7.68794C13.9723 7.72411 14.1393 7.8134 14.2704 7.94451C14.4015 8.07562 14.4908 8.24267 14.527 8.42452C14.5632 8.60638 14.5446 8.79488 14.4736 8.96619C14.4027 9.13749 14.2825 9.28391 14.1283 9.38692C13.9742 9.48994 13.7929 9.54492 13.6075 9.54492C13.3589 9.54492 13.1204 9.44615 12.9446 9.27033C12.7688 9.09452 12.67 8.85606 12.67 8.60742Z" fill="black"/>
</svg>
