<svg width="180" height="30" viewBox="0 0 180 30" fill="none" xmlns="http://www.w3.org/2000/svg">
<g clip-path="url(#clip0_751_3332)">
<mask id="mask0_751_3332" style="mask-type:luminance" maskUnits="userSpaceOnUse" x="0" y="1" width="27" height="28">
<path d="M0 1.5H27V28.5H0V1.5Z" fill="white"/>
</mask>
<g mask="url(#mask0_751_3332)">
<path fill-rule="evenodd" clip-rule="evenodd" d="M5.38775 23.6443L5.69382 23.9476L5.72415 23.9779C6.67268 24.9623 6.66441 26.5478 5.69382 27.5184C4.72047 28.4917 3.135 28.5 2.15062 27.5487L2.12029 27.5184L1.81422 27.2178L0.98426 26.3824C0.00264245 25.4007 0.00264245 23.796 0.98426 22.8116C1.96588 21.83 3.57341 21.83 4.55503 22.8116L5.38775 23.6443ZM22.2352 9.8272L22.8694 9.19301L25.9824 6.0772C26.964 5.09834 26.964 3.49081 25.9824 2.50643C24.998 1.52481 23.3933 1.52481 22.4116 2.50643L19.2986 5.61948L18.9567 5.95864L18.6616 6.25643L16.8776 8.04044C15.896 9.02206 15.896 10.6268 16.8776 11.614L18.6616 13.398L18.9815 13.7151L22.4337 17.1673C23.4153 18.1489 25.0229 18.1489 26.0072 17.1673C26.9889 16.1857 26.9889 14.5781 26.0072 13.5965L22.5523 10.1415L22.2352 9.8272ZM1.12489 2.53125V2.52849C2.1065 1.54687 3.7168 1.54687 4.69841 2.52849L25.9576 23.7904C26.9447 24.7721 26.9447 26.3824 25.9576 27.364C24.9787 28.3456 23.3712 28.3456 22.3868 27.364L1.12489 6.09926C0.146025 5.11764 0.146025 3.51286 1.12489 2.53125ZM1.09455 12.7086C2.07617 11.727 3.68371 11.727 4.66808 12.7086L15.7802 23.8208C16.7618 24.8024 16.7618 26.4127 15.7802 27.3943C14.7958 28.3759 13.1883 28.3759 12.2094 27.3943L8.75448 23.9421L1.09455 16.2822C0.112937 15.3005 0.112937 13.6903 1.09455 12.7086Z" fill="black"/>
</g>
<mask id="mask1_751_3332" style="mask-type:luminance" maskUnits="userSpaceOnUse" x="27" y="0" width="153" height="30">
<path d="M180 0.236435H27V29.7636H180V0.236435Z" fill="white"/>
</mask>
<g mask="url(#mask1_751_3332)">
<path d="M34.1837 23.0954L28.1196 7.49702H31.3615L36.0495 20.1735L40.7491 7.49702H43.9444L37.892 23.0954H34.1837Z" fill="black"/>
<path d="M49.5693 23.0954V7.49702H60.3796V9.79285H52.5897V14.0769H59.6683V16.2958H52.5897V20.7996H60.3796V23.0954H49.5693Z" fill="black"/>
<path d="M66.3979 23.0954V20.9095L74.013 9.88073H66.4679V7.49702H77.5114V9.683L69.8498 20.7117H77.5697V23.0954H66.3979Z" fill="black"/>
<path d="M89.0867 23.0954L82.8711 7.49702H85.0168L90.2412 21.1182L95.5239 7.49702H97.623L91.4074 23.0954H89.0867Z" fill="black"/>
<path d="M103.553 23.0954V7.49702H105.536V23.0954H103.553Z" fill="black"/>
<path d="M117.975 23.3591C116.762 23.3591 115.704 23.1531 114.803 22.7439C113.908 22.3265 113.217 21.7498 112.727 21.0083C112.238 20.2614 111.993 19.399 111.993 18.4159H114.08C114.08 19.0256 114.226 19.5858 114.523 20.0966C114.826 20.6101 115.264 21.0193 115.841 21.3269C116.415 21.629 117.127 21.7773 117.975 21.7773C119.095 21.7773 119.96 21.5246 120.576 21.0193C121.188 20.514 121.497 19.8851 121.497 19.1299C121.497 18.5093 121.351 18.0067 121.065 17.625C120.786 17.246 120.404 16.9385 119.923 16.7023C119.447 16.4689 118.899 16.2629 118.278 16.0871C117.654 15.9059 117.001 15.6999 116.319 15.472C115.042 15.0628 114.098 14.5493 113.485 13.9341C112.87 13.3135 112.564 12.5033 112.564 11.5065C112.547 10.6799 112.751 9.94388 113.17 9.29853C113.596 8.64768 114.2 8.14238 114.978 7.78262C115.762 7.41738 116.692 7.23338 117.765 7.23338C118.821 7.23338 119.739 7.42012 120.517 7.79361C121.302 8.1616 121.908 8.67239 122.337 9.33148C122.771 9.98507 122.995 10.7238 123.013 11.5504H120.937C120.937 11.1275 120.815 10.7018 120.576 10.2762C120.342 9.85326 119.984 9.50724 119.503 9.2436C119.019 8.97447 118.418 8.83716 117.695 8.83716C116.791 8.82343 116.054 9.04038 115.479 9.48527C114.902 9.9329 114.617 10.548 114.617 11.3307C114.617 11.998 114.818 12.5116 115.223 12.8686C115.625 13.2283 116.191 13.5249 116.914 13.7584C117.637 13.9863 118.471 14.2472 119.421 14.5383C120.205 14.8101 120.914 15.126 121.544 15.483C122.179 15.8345 122.675 16.2931 123.025 16.8561C123.38 17.4218 123.561 18.1413 123.561 19.0201C123.561 19.7615 123.354 20.4646 122.943 21.1292C122.529 21.7882 121.911 22.3265 121.089 22.7439C120.264 23.1531 119.226 23.3591 117.975 23.3591Z" fill="black"/>
<path d="M130.034 23.0954V7.49702H132.017V23.0954H130.034Z" fill="black"/>
<path d="M146.707 23.3591C145.08 23.3591 143.657 23.024 142.438 22.3485C141.217 21.6756 140.261 20.731 139.57 19.5144C138.885 18.2923 138.543 16.8863 138.543 15.2962C138.543 13.7089 138.885 12.3084 139.57 11.1C140.261 9.8917 141.217 8.94701 142.438 8.26595C143.657 7.5794 145.08 7.23338 146.707 7.23338C148.345 7.23338 149.776 7.5794 150.998 8.26595C152.217 8.94701 153.167 9.8917 153.843 11.1C154.526 12.3084 154.87 13.7089 154.87 15.2962C154.87 16.8863 154.526 18.2923 153.843 19.5144C153.167 20.731 152.217 21.6756 150.998 22.3485C149.776 23.024 148.345 23.3591 146.707 23.3591ZM146.707 21.7113C147.919 21.7113 148.983 21.456 149.902 20.9424C150.826 20.4316 151.546 19.6984 152.059 18.7455C152.572 17.787 152.829 16.6364 152.829 15.2962C152.829 13.9643 152.572 12.8219 152.059 11.869C151.546 10.9188 150.826 10.1855 149.902 9.67201C148.983 9.16122 147.919 8.90307 146.707 8.90307C145.494 8.90307 144.424 9.16122 143.5 9.67201C142.581 10.1855 141.867 10.9188 141.354 11.869C140.841 12.8219 140.584 13.9643 140.584 15.2962C140.584 16.6364 140.841 17.787 141.354 18.7455C141.867 19.6984 142.581 20.4316 143.5 20.9424C144.424 21.456 145.494 21.7113 146.707 21.7113Z" fill="black"/>
<path d="M161.385 23.0954V7.49702H163.367L172.195 19.9977V7.49702H174.178V23.0954H172.195L163.367 10.5947V23.0954H161.385Z" fill="black"/>
</g>
</g>
<defs>
<clipPath id="clip0_751_3332">
<rect width="180" height="29.5271" fill="white" transform="translate(0 0.236435)"/>
</clipPath>
</defs>
</svg>
