<svg xmlns="http://www.w3.org/2000/svg" viewBox="65 165 45 45" role="img" aria-label="VEZvision">
  <title>VEZvision</title>
  <path d="M76.227,199.727L76.66,200.156L76.703,200.199C78.047,201.594 78.035,203.84 76.66,205.215C75.281,206.594 73.035,206.605 71.641,205.258L71.598,205.215L71.164,204.789L69.988,203.605C68.598,202.215 68.598,199.941 69.988,198.547C71.379,197.156 73.656,197.156 75.047,198.547L76.227,199.727ZM100.094,180.152L105.402,174.844C106.793,173.453 106.793,171.176 105.402,169.781C104.008,168.391 101.734,168.391 100.344,169.781L95.934,174.191L95.449,174.672L95.031,175.094L92.504,177.621C91.113,179.012 91.113,181.285 92.504,182.684L95.031,185.211L95.484,185.66L100.375,190.551C101.766,191.941 104.043,191.941 105.438,190.551C106.828,189.16 106.828,186.883 105.438,185.492L100.543,180.598L100.094,180.152ZM70.188,169.816L70.188,169.812C71.578,168.422 73.859,168.422 75.25,169.812L105.367,199.934C106.766,201.324 106.766,203.605 105.367,204.996C103.98,206.387 101.703,206.387 100.309,204.996L70.188,174.871C68.801,173.48 68.801,171.207 70.188,169.816ZM70.145,184.234C71.535,182.844 73.812,182.844 75.207,184.234L90.949,199.977C92.34,201.367 92.34,203.648 90.949,205.039C89.555,206.43 87.277,206.43 85.891,205.039L80.996,200.148L70.145,189.297C68.754,187.906 68.754,185.625 70.145,184.234Z" fill="white"/>
</svg>