<svg width="84" height="84" viewBox="0 0 84 84" fill="none" xmlns="http://www.w3.org/2000/svg">
<g filter="url(#filter0_dddddd_349_510)">
<rect x="0.494995" y="0.5" width="83" height="83" rx="41.5" fill="url(#paint0_linear_349_510)" shape-rendering="crispEdges"/>
<mask id="mask0_349_510" style="mask-type:luminance" maskUnits="userSpaceOnUse" x="16" y="16" width="52" height="52">
<path d="M16.495 16.5H67.495V67.5H16.495V16.5Z" fill="white"/>
</mask>
<g mask="url(#mask0_349_510)">
<path fill-rule="evenodd" clip-rule="evenodd" d="M26.6721 58.3285L27.2502 58.9014L27.3075 58.9587C29.0992 60.818 29.0835 63.8128 27.2502 65.6462C25.4117 67.4847 22.4169 67.5003 20.5575 65.7035L20.5002 65.6462L19.9221 65.0785L18.3544 63.5003C16.5002 61.6462 16.5002 58.6149 18.3544 56.7555C20.2085 54.9014 23.245 54.9014 25.0992 56.7555L26.6721 58.3285ZM58.495 32.2295L65.5731 25.1514C67.4273 23.2972 67.4273 20.2607 65.5731 18.4014C63.7137 16.5472 60.6825 16.5472 58.8283 18.4014L52.9481 24.2816L52.3023 24.9222L51.745 25.4847L48.3752 28.8545C46.521 30.7087 46.521 33.7399 48.3752 35.6045L51.745 38.9743L52.3492 39.5732L58.87 46.0941C60.7242 47.9482 63.7606 47.9482 65.62 46.0941C67.4742 44.2399 67.4742 41.2034 65.62 39.3493L59.094 32.8232L58.495 32.2295ZM18.62 18.4482V18.443C20.4742 16.5889 23.5158 16.5889 25.37 18.443L65.5262 58.6045C67.3908 60.4587 67.3908 63.5003 65.5262 65.3545C63.6773 67.2087 60.6408 67.2087 58.7815 65.3545L18.62 25.1878C16.771 23.3337 16.771 20.3024 18.62 18.4482ZM18.5627 37.6722C20.4169 35.818 23.4533 35.818 25.3127 37.6722L46.3023 58.6618C48.1565 60.516 48.1565 63.5576 46.3023 65.4118C44.4429 67.266 41.4065 67.266 39.5575 65.4118L33.0315 58.891L18.5627 44.4222C16.7085 42.568 16.7085 39.5264 18.5627 37.6722Z" fill="white"/>
</g>
</g>
<defs>
<filter id="filter0_dddddd_349_510" x="-25.505" y="0.5" width="135" height="139" filterUnits="userSpaceOnUse" color-interpolation-filters="sRGB">
<feFlood flood-opacity="0" result="BackgroundImageFix"/>
<feColorMatrix in="SourceAlpha" type="matrix" values="0 0 0 0 0 0 0 0 0 0 0 0 0 0 0 0 0 0 127 0" result="hardAlpha"/>
<feMorphology radius="4" operator="erode" in="SourceAlpha" result="effect1_dropShadow_349_510"/>
<feOffset dy="30"/>
<feGaussianBlur stdDeviation="15"/>
<feComposite in2="hardAlpha" operator="out"/>
<feColorMatrix type="matrix" values="0 0 0 0 0.0627451 0 0 0 0 0.192157 0 0 0 0 0.301961 0 0 0 0.06 0"/>
<feBlend mode="normal" in2="BackgroundImageFix" result="effect1_dropShadow_349_510"/>
<feColorMatrix in="SourceAlpha" type="matrix" values="0 0 0 0 0 0 0 0 0 0 0 0 0 0 0 0 0 0 127 0" result="hardAlpha"/>
<feMorphology radius="3.33333" operator="erode" in="SourceAlpha" result="effect2_dropShadow_349_510"/>
<feOffset dy="13.6468"/>
<feGaussianBlur stdDeviation="6.8234"/>
<feComposite in2="hardAlpha" operator="out"/>
<feColorMatrix type="matrix" values="0 0 0 0 0.0627451 0 0 0 0 0.192157 0 0 0 0 0.301961 0 0 0 0.16 0"/>
<feBlend mode="normal" in2="effect1_dropShadow_349_510" result="effect2_dropShadow_349_510"/>
<feColorMatrix in="SourceAlpha" type="matrix" values="0 0 0 0 0 0 0 0 0 0 0 0 0 0 0 0 0 0 127 0" result="hardAlpha"/>
<feMorphology radius="2.66667" operator="erode" in="SourceAlpha" result="effect3_dropShadow_349_510"/>
<feOffset dy="6.8656"/>
<feGaussianBlur stdDeviation="3.4328"/>
<feComposite in2="hardAlpha" operator="out"/>
<feColorMatrix type="matrix" values="0 0 0 0 0.0627451 0 0 0 0 0.192157 0 0 0 0 0.301961 0 0 0 0.2 0"/>
<feBlend mode="normal" in2="effect2_dropShadow_349_510" result="effect3_dropShadow_349_510"/>
<feColorMatrix in="SourceAlpha" type="matrix" values="0 0 0 0 0 0 0 0 0 0 0 0 0 0 0 0 0 0 127 0" result="hardAlpha"/>
<feMorphology radius="2" operator="erode" in="SourceAlpha" result="effect4_dropShadow_349_510"/>
<feOffset dy="3.62176"/>
<feGaussianBlur stdDeviation="1.81088"/>
<feComposite in2="hardAlpha" operator="out"/>
<feColorMatrix type="matrix" values="0 0 0 0 0.0627451 0 0 0 0 0.192157 0 0 0 0 0.301961 0 0 0 0.22 0"/>
<feBlend mode="normal" in2="effect3_dropShadow_349_510" result="effect4_dropShadow_349_510"/>
<feColorMatrix in="SourceAlpha" type="matrix" values="0 0 0 0 0 0 0 0 0 0 0 0 0 0 0 0 0 0 127 0" result="hardAlpha"/>
<feMorphology radius="1.33333" operator="erode" in="SourceAlpha" result="effect5_dropShadow_349_510"/>
<feOffset dy="1.80656"/>
<feGaussianBlur stdDeviation="0.90328"/>
<feComposite in2="hardAlpha" operator="out"/>
<feColorMatrix type="matrix" values="0 0 0 0 0.0627451 0 0 0 0 0.192157 0 0 0 0 0.301961 0 0 0 0.23 0"/>
<feBlend mode="normal" in2="effect4_dropShadow_349_510" result="effect5_dropShadow_349_510"/>
<feColorMatrix in="SourceAlpha" type="matrix" values="0 0 0 0 0 0 0 0 0 0 0 0 0 0 0 0 0 0 127 0" result="hardAlpha"/>
<feMorphology radius="0.666667" operator="erode" in="SourceAlpha" result="effect6_dropShadow_349_510"/>
<feOffset dy="0.706592"/>
<feGaussianBlur stdDeviation="0.353296"/>
<feComposite in2="hardAlpha" operator="out"/>
<feColorMatrix type="matrix" values="0 0 0 0 0.0627451 0 0 0 0 0.192157 0 0 0 0 0.301961 0 0 0 0.24 0"/>
<feBlend mode="normal" in2="effect5_dropShadow_349_510" result="effect6_dropShadow_349_510"/>
<feBlend mode="normal" in="SourceGraphic" in2="effect6_dropShadow_349_510" result="shape"/>
</filter>
<linearGradient id="paint0_linear_349_510" x1="0.494995" y1="42" x2="83.495" y2="42" gradientUnits="userSpaceOnUse">
<stop/>
<stop offset="1" stop-opacity="0.4"/>
</linearGradient>
</defs>
</svg>
